Consequences.ufo
<glyph name="exclam" format="2">
  <advance width="384"/>
  <unicode hex="0021"/>
  <outline>
    <contour>
      <point x="355" y="119" type="line"/>
      <point x="355" y="-1" type="line"/>
      <point x="345" y="-1" type="line"/>
      <point x="151" y="-1" type="line"/>
      <point x="28" y="-1" type="line"/>
      <point x="28" y="119" type="line"/>
      <point x="28" y="121" type="line"/>
    </contour>
    <contour>
      <point x="355" y="407" type="line"/>
      <point x="355" y="178" type="line"/>
      <point x="28" y="178" type="line"/>
      <point x="28" y="570" type="line"/>
      <point x="28" y="652" type="line"/>
      <point x="28" y="693" type="line"/>
      <point x="355" y="693" type="line"/>
      <point x="355" y="570" type="line"/>
    </contour>
  </outline>
</glyph>
<glyph name="quotedbl" format="2">
  <advance width="534"/>
  <unicode hex="0022"/>
  <outline>
    <contour>
      <point x="149" y="696" type="line"/>
      <point x="255" y="696" type="line"/>
      <point x="255" y="573" type="line"/>
      <point x="66" y="458" type="line"/>
      <point x="7" y="511" type="line"/>
      <point x="89" y="573" type="line"/>
      <point x="34" y="573" type="line"/>
      <point x="34" y="696" type="line"/>
    </contour>
    <contour>
      <point x="513" y="696" type="line"/>
      <point x="513" y="573" type="line"/>
      <point x="319" y="458" type="line"/>
      <point x="251" y="511" type="line"/>
      <point x="342" y="573" type="line"/>
      <point x="287" y="573" type="line"/>
      <point x="287" y="696" type="line"/>
      <point x="402" y="696" type="line"/>
    </contour>
  </outline>
</glyph>
<glyph name="quotesingle" format="2">
  <advance width="280"/>
  <unicode hex="0027"/>
  <outline>
    <contour>
      <point x="262" y="696" type="line"/>
      <point x="262" y="573" type="line"/>
      <point x="66" y="458" type="line"/>
      <point x="7" y="511" type="line"/>
      <point x="89" y="573" type="line"/>
      <point x="34" y="573" type="line"/>
      <point x="34" y="696" type="line"/>
      <point x="149" y="696" type="line"/>
    </contour>
  </outline>
</glyph>
<glyph name="parenleft" format="2">
  <advance width="483"/>
  <unicode hex="0028"/>
  <outline>
    <contour>
      <point x="226" y="826" type="line"/>
      <point x="471" y="826" type="line"/>
      <point x="471" y="703" type="line"/>
      <point x="348" y="703" type="line"/>
      <point x="348" y="530" type="line"/>
      <point x="348" y="254" type="line"/>
      <point x="348" y="81" type="line"/>
      <point x="348" y="-10" type="line"/>
      <point x="471" y="-10" type="line"/>
      <point x="471" y="-133" type="line"/>
      <point x="348" y="-133" type="line"/>
      <point x="226" y="-133" type="line"/>
      <point x="207" y="-132" type="line"/>
      <point x="189" y="-129" type="line"/>
      <point x="170" y="-125" type="line"/>
      <point x="151" y="-118" type="line"/>
      <point x="132" y="-110" type="line"/>
      <point x="114" y="-99" type="line"/>
      <point x="97" y="-87" type="line"/>
      <point x="82" y="-73" type="line"/>
      <point x="67" y="-57" type="line"/>
      <point x="55" y="-40" type="line"/>
      <point x="45" y="-22" type="line"/>
      <point x="36" y="-4" type="line"/>
      <point x="30" y="15" type="line"/>
      <point x="25" y="34" type="line"/>
      <point x="23" y="53" type="line"/>
      <point x="22" y="71" type="line"/>
      <point x="22" y="163" type="line"/>
      <point x="22" y="215" type="line"/>
      <point x="22" y="530" type="line"/>
      <point x="22" y="582" type="line"/>
      <point x="22" y="622" type="line"/>
      <point x="23" y="640" type="line"/>
      <point x="25" y="659" type="line"/>
      <point x="30" y="678" type="line"/>
      <point x="36" y="697" type="line"/>
      <point x="45" y="715" type="line"/>
      <point x="55" y="733" type="line"/>
      <point x="67" y="750" type="line"/>
      <point x="82" y="766" type="line"/>
      <point x="97" y="780" type="line"/>
      <point x="114" y="792" type="line"/>
      <point x="132" y="803" type="line"/>
      <point x="151" y="811" type="line"/>
      <point x="170" y="818" type="line"/>
      <point x="189" y="822" type="line"/>
      <point x="207" y="825" type="line"/>
    </contour>
  </outline>
</glyph>
<glyph name="parenright" format="2">
  <advance width="494"/>
  <unicode hex="0029"/>
  <outline>
    <contour>
      <point x="13" y="832" type="line"/>
      <point x="258" y="832" type="line"/>
      <point x="276" y="831" type="line"/>
      <point x="295" y="828" type="line"/>
      <point x="314" y="824" type="line"/>
      <point x="333" y="817" type="line"/>
      <point x="352" y="809" type="line"/>
      <point x="369" y="798" type="line"/>
      <point x="386" y="786" type="line"/>
      <point x="402" y="772" type="line"/>
      <point x="416" y="756" type="line"/>
      <point x="429" y="739" type="line"/>
      <point x="439" y="721" type="line"/>
      <point x="447" y="703" type="line"/>
      <point x="454" y="684" type="line"/>
      <point x="458" y="665" type="line"/>
      <point x="461" y="646" type="line"/>
      <point x="462" y="628" type="line"/>
      <point x="462" y="588" type="line"/>
      <point x="462" y="536" type="line"/>
      <point x="462" y="221" type="line"/>
      <point x="462" y="169" type="line"/>
      <point x="462" y="77" type="line"/>
      <point x="461" y="59" type="line"/>
      <point x="458" y="40" type="line"/>
      <point x="454" y="21" type="line"/>
      <point x="447" y="2" type="line"/>
      <point x="439" y="-16" type="line"/>
      <point x="429" y="-34" type="line"/>
      <point x="416" y="-51" type="line"/>
      <point x="402" y="-67" type="line"/>
      <point x="386" y="-81" type="line"/>
      <point x="369" y="-93" type="line"/>
      <point x="352" y="-104" type="line"/>
      <point x="333" y="-112" type="line"/>
      <point x="314" y="-119" type="line"/>
      <point x="295" y="-123" type="line"/>
      <point x="276" y="-126" type="line"/>
      <point x="258" y="-127" type="line"/>
      <point x="135" y="-127" type="line"/>
      <point x="13" y="-127" type="line"/>
      <point x="13" y="-4" type="line"/>
      <point x="135" y="-4" type="line"/>
      <point x="135" y="87" type="line"/>
      <point x="135" y="260" type="line"/>
      <point x="135" y="536" type="line"/>
      <point x="135" y="709" type="line"/>
      <point x="13" y="709" type="line"/>
    </contour>
  </outline>
</glyph>
<glyph name="comma" format="2">
  <advance width="228"/>
  <unicode hex="002C"/>
  <outline>
    <contour>
      <point x="208" y="122" type="line"/>
      <point x="208" y="-1" type="line"/>
      <point x="46" y="-116" type="line"/>
      <point x="-13" y="-63" type="line"/>
      <point x="69" y="-1" type="line"/>
      <point x="14" y="-1" type="line"/>
      <point x="14" y="122" type="line"/>
      <point x="129" y="122" type="line"/>
    </contour>
  </outline>
</glyph>
<glyph name="hyphen" format="2">
  <advance width="331"/>
  <unicode hex="002D"/>
  <outline>
    <contour>
      <point x="317" y="377" type="line"/>
      <point x="317" y="298" type="line"/>
      <point x="23" y="298" type="line"/>
      <point x="23" y="377" type="line"/>
      <point x="138" y="377" type="line"/>
    </contour>
  </outline>
</glyph>
<glyph name="period" format="2">
  <advance width="227"/>
  <unicode hex="002E"/>
  <outline>
    <contour>
      <point x="209" y="128" type="line"/>
      <point x="209" y="5" type="line"/>
      <point x="17" y="5" type="line"/>
      <point x="17" y="128" type="line"/>
      <point x="132" y="128" type="line"/>
    </contour>
  </outline>
</glyph>
<glyph name="slash" format="2">
  <advance width="760"/>
  <unicode hex="002F"/>
  <outline>
    <contour>
      <point x="749" y="699" type="line"/>
      <point x="341" y="3" type="line"/>
      <point x="15" y="3" type="line"/>
      <point x="422" y="699" type="line"/>
    </contour>
  </outline>
</glyph>
<glyph name="zero" format="2">
  <advance width="751"/>
  <unicode hex="0030"/>
  <outline>
    <contour>
      <point x="600" y="467" type="line"/>
      <point x="395" y="124" type="line"/>
      <point x="525" y="124" type="line"/>
      <point x="533" y="125" type="line"/>
      <point x="540" y="127" type="line"/>
      <point x="548" y="129" type="line"/>
      <point x="555" y="133" type="line"/>
      <point x="563" y="137" type="line"/>
      <point x="570" y="142" type="line"/>
      <point x="576" y="148" type="line"/>
      <point x="581" y="154" type="line"/>
      <point x="587" y="161" type="line"/>
      <point x="591" y="168" type="line"/>
      <point x="594" y="176" type="line"/>
      <point x="597" y="183" type="line"/>
      <point x="598" y="191" type="line"/>
      <point x="599" y="198" type="line"/>
    </contour>
    <contour>
      <point x="574" y="689" type="line"/>
      <point x="593" y="683" type="line"/>
      <point x="612" y="674" type="line"/>
      <point x="630" y="664" type="line"/>
      <point x="647" y="651" type="line"/>
      <point x="663" y="637" type="line"/>
      <point x="677" y="621" type="line"/>
      <point x="689" y="605" type="line"/>
      <point x="700" y="587" type="line"/>
      <point x="708" y="568" type="line"/>
      <point x="715" y="549" type="line"/>
      <point x="719" y="529" type="line"/>
      <point x="722" y="511" type="line"/>
      <point x="723" y="493" type="line"/>
      <point x="722" y="187" type="line"/>
      <point x="719" y="168" type="line"/>
      <point x="715" y="149" type="line"/>
      <point x="708" y="130" type="line"/>
      <point x="700" y="111" type="line"/>
      <point x="689" y="94" type="line"/>
      <point x="677" y="77" type="line"/>
      <point x="663" y="61" type="line"/>
      <point x="647" y="47" type="line"/>
      <point x="630" y="34" type="line"/>
      <point x="612" y="23" type="line"/>
      <point x="593" y="15" type="line"/>
      <point x="574" y="9" type="line"/>
      <point x="555" y="4" type="line"/>
      <point x="536" y="2" type="line"/>
      <point x="518" y="1" type="line"/>
      <point x="213" y="2" type="line"/>
      <point x="194" y="4" type="line"/>
      <point x="175" y="9" type="line"/>
      <point x="156" y="15" type="line"/>
      <point x="137" y="23" type="line"/>
      <point x="119" y="34" type="line"/>
      <point x="102" y="47" type="line"/>
      <point x="86" y="61" type="line"/>
      <point x="72" y="77" type="line"/>
      <point x="60" y="94" type="line"/>
      <point x="49" y="111" type="line"/>
      <point x="41" y="130" type="line"/>
      <point x="34" y="149" type="line"/>
      <point x="30" y="168" type="line"/>
      <point x="27" y="187" type="line"/>
      <point x="26" y="206" type="line"/>
      <point x="26" y="410" type="line"/>
      <point x="27" y="511" type="line"/>
      <point x="30" y="529" type="line"/>
      <point x="34" y="549" type="line"/>
      <point x="41" y="568" type="line"/>
      <point x="49" y="587" type="line"/>
      <point x="60" y="605" type="line"/>
      <point x="72" y="621" type="line"/>
      <point x="86" y="637" type="line"/>
      <point x="102" y="651" type="line"/>
      <point x="119" y="664" type="line"/>
      <point x="137" y="674" type="line"/>
      <point x="156" y="683" type="line"/>
      <point x="175" y="689" type="line"/>
      <point x="194" y="694" type="line"/>
      <point x="213" y="697" type="line"/>
      <point x="518" y="697" type="line"/>
      <point x="536" y="697" type="line"/>
      <point x="555" y="694" type="line"/>
    </contour>
    <contour>
      <point x="589" y="534" type="line"/>
      <point x="583" y="543" type="line"/>
      <point x="575" y="551" type="line"/>
      <point x="567" y="558" type="line"/>
      <point x="557" y="564" type="line"/>
      <point x="548" y="569" type="line"/>
      <point x="537" y="572" type="line"/>
      <point x="527" y="574" type="line"/>
      <point x="395" y="574" type="line"/>
      <point x="395" y="203" type="line"/>
    </contour>
  </outline>
</glyph>
<glyph name="one" format="2">
  <advance width="499"/>
  <unicode hex="0031"/>
  <outline>
    <contour>
      <point x="143" y="697" type="line"/>
      <point x="471" y="697" type="line"/>
      <point x="471" y="574" type="line"/>
      <point x="471" y="410" type="line"/>
      <point x="471" y="1" type="line"/>
      <point x="266" y="1" type="line"/>
      <point x="143" y="1" type="line"/>
      <point x="143" y="124" type="line"/>
      <point x="143" y="493" type="line"/>
      <point x="20" y="493" type="line"/>
      <point x="20" y="574" type="line"/>
    </contour>
  </outline>
</glyph>
<glyph name="two" format="2">
  <advance width="734"/>
  <unicode hex="0032"/>
  <outline>
    <contour>
      <point x="28" y="550" type="line"/>
      <point x="34" y="569" type="line"/>
      <point x="43" y="588" type="line"/>
      <point x="53" y="606" type="line"/>
      <point x="66" y="623" type="line"/>
      <point x="80" y="638" type="line"/>
      <point x="96" y="653" type="line"/>
      <point x="113" y="665" type="line"/>
      <point x="131" y="675" type="line"/>
      <point x="150" y="684" type="line"/>
      <point x="169" y="690" type="line"/>
      <point x="188" y="695" type="line"/>
      <point x="207" y="698" type="line"/>
      <point x="225" y="698" type="line"/>
      <point x="530" y="698" type="line"/>
      <point x="549" y="695" type="line"/>
      <point x="568" y="690" type="line"/>
      <point x="587" y="684" type="line"/>
      <point x="606" y="675" type="line"/>
      <point x="624" y="665" type="line"/>
      <point x="641" y="653" type="line"/>
      <point x="657" y="638" type="line"/>
      <point x="671" y="623" type="line"/>
      <point x="683" y="606" type="line"/>
      <point x="694" y="588" type="line"/>
      <point x="702" y="569" type="line"/>
      <point x="709" y="550" type="line"/>
      <point x="713" y="531" type="line"/>
      <point x="716" y="512" type="line"/>
      <point x="717" y="411" type="line"/>
      <point x="717" y="370" type="line"/>
      <point x="716" y="359" type="line"/>
      <point x="714" y="348" type="line"/>
      <point x="712" y="337" type="line"/>
      <point x="708" y="325" type="line"/>
      <point x="703" y="314" type="line"/>
      <point x="696" y="303" type="line"/>
      <point x="689" y="293" type="line"/>
      <point x="681" y="284" type="line"/>
      <point x="671" y="275" type="line"/>
      <point x="661" y="268" type="line"/>
      <point x="650" y="261" type="line"/>
      <point x="639" y="256" type="line"/>
      <point x="628" y="252" type="line"/>
      <point x="616" y="250" type="line"/>
      <point x="605" y="248" type="line"/>
      <point x="594" y="248" type="line"/>
      <point x="184" y="248" type="line"/>
      <point x="180" y="247" type="line"/>
      <point x="177" y="247" type="line"/>
      <point x="173" y="246" type="line"/>
      <point x="169" y="245" type="line"/>
      <point x="165" y="243" type="line"/>
      <point x="162" y="241" type="line"/>
      <point x="158" y="239" type="line"/>
      <point x="155" y="236" type="line"/>
      <point x="152" y="232" type="line"/>
      <point x="150" y="229" type="line"/>
      <point x="148" y="225" type="line"/>
      <point x="146" y="222" type="line"/>
      <point x="145" y="218" type="line"/>
      <point x="144" y="214" type="line"/>
      <point x="143" y="210" type="line"/>
      <point x="143" y="207" type="line"/>
      <point x="143" y="166" type="line"/>
      <point x="143" y="162" type="line"/>
      <point x="144" y="158" type="line"/>
      <point x="145" y="154" type="line"/>
      <point x="146" y="151" type="line"/>
      <point x="148" y="147" type="line"/>
      <point x="150" y="143" type="line"/>
      <point x="152" y="140" type="line"/>
      <point x="155" y="137" type="line"/>
      <point x="158" y="134" type="line"/>
      <point x="162" y="132" type="line"/>
      <point x="165" y="129" type="line"/>
      <point x="169" y="128" type="line"/>
      <point x="173" y="126" type="line"/>
      <point x="177" y="125" type="line"/>
      <point x="180" y="125" type="line"/>
      <point x="184" y="125" type="line"/>
      <point x="348" y="125" type="line"/>
      <point x="717" y="125" type="line"/>
      <point x="717" y="2" type="line"/>
      <point x="20" y="2" type="line"/>
      <point x="20" y="248" type="line"/>
      <point x="21" y="259" type="line"/>
      <point x="22" y="270" type="line"/>
      <point x="25" y="282" type="line"/>
      <point x="29" y="293" type="line"/>
      <point x="34" y="304" type="line"/>
      <point x="40" y="315" type="line"/>
      <point x="48" y="325" type="line"/>
      <point x="56" y="335" type="line"/>
      <point x="66" y="343" type="line"/>
      <point x="76" y="351" type="line"/>
      <point x="87" y="357" type="line"/>
      <point x="98" y="362" type="line"/>
      <point x="109" y="366" type="line"/>
      <point x="121" y="369" type="line"/>
      <point x="132" y="370" type="line"/>
      <point x="143" y="370" type="line"/>
      <point x="348" y="370" type="line"/>
      <point x="348" y="453" type="line"/>
      <point x="348" y="575" type="line"/>
      <point x="218" y="575" type="line"/>
      <point x="210" y="574" type="line"/>
      <point x="203" y="572" type="line"/>
      <point x="195" y="570" type="line"/>
      <point x="187" y="566" type="line"/>
      <point x="180" y="562" type="line"/>
      <point x="173" y="557" type="line"/>
      <point x="167" y="552" type="line"/>
      <point x="162" y="545" type="line"/>
      <point x="156" y="538" type="line"/>
      <point x="152" y="531" type="line"/>
      <point x="149" y="524" type="line"/>
      <point x="146" y="516" type="line"/>
      <point x="144" y="508" type="line"/>
      <point x="143" y="501" type="line"/>
      <point x="143" y="494" type="line"/>
      <point x="143" y="453" type="line"/>
      <point x="20" y="453" type="line"/>
      <point x="20" y="494" type="line"/>
      <point x="21" y="512" type="line"/>
      <point x="23" y="531" type="line"/>
    </contour>
  </outline>
</glyph>
<glyph name="three" format="2">
  <advance width="722"/>
  <unicode hex="0033"/>
  <outline>
    <contour>
      <point x="23" y="550" type="line"/>
      <point x="29" y="569" type="line"/>
      <point x="37" y="588" type="line"/>
      <point x="48" y="606" type="line"/>
      <point x="60" y="623" type="line"/>
      <point x="75" y="639" type="line"/>
      <point x="90" y="653" type="line"/>
      <point x="107" y="666" type="line"/>
      <point x="125" y="676" type="line"/>
      <point x="144" y="685" type="line"/>
      <point x="163" y="691" type="line"/>
      <point x="182" y="695" type="line"/>
      <point x="201" y="698" type="line"/>
      <point x="219" y="699" type="line"/>
      <point x="506" y="699" type="line"/>
      <point x="523" y="698" type="line"/>
      <point x="541" y="696" type="line"/>
      <point x="559" y="691" type="line"/>
      <point x="577" y="685" type="line"/>
      <point x="595" y="677" type="line"/>
      <point x="612" y="667" type="line"/>
      <point x="628" y="656" type="line"/>
      <point x="643" y="642" type="line"/>
      <point x="656" y="627" type="line"/>
      <point x="668" y="611" type="line"/>
      <point x="678" y="594" type="line"/>
      <point x="686" y="576" type="line"/>
      <point x="692" y="559" type="line"/>
      <point x="696" y="540" type="line"/>
      <point x="699" y="523" type="line"/>
      <point x="700" y="505" type="line"/>
      <point x="700" y="467" type="line"/>
      <point x="699" y="456" type="line"/>
      <point x="697" y="446" type="line"/>
      <point x="695" y="435" type="line"/>
      <point x="692" y="424" type="line"/>
      <point x="686" y="413" type="line"/>
      <point x="681" y="403" type="line"/>
      <point x="674" y="393" type="line"/>
      <point x="666" y="385" type="line"/>
      <point x="657" y="376" type="line"/>
      <point x="647" y="369" type="line"/>
      <point x="637" y="364" type="line"/>
      <point x="626" y="359" type="line"/>
      <point x="615" y="355" type="line"/>
      <point x="605" y="353" type="line"/>
      <point x="594" y="351" type="line"/>
      <point x="583" y="350" type="line"/>
      <point x="594" y="350" type="line"/>
      <point x="605" y="349" type="line"/>
      <point x="615" y="346" type="line"/>
      <point x="626" y="342" type="line"/>
      <point x="637" y="338" type="line"/>
      <point x="647" y="332" type="line"/>
      <point x="657" y="325" type="line"/>
      <point x="666" y="317" type="line"/>
      <point x="674" y="308" type="line"/>
      <point x="681" y="298" type="line"/>
      <point x="686" y="288" type="line"/>
      <point x="692" y="277" type="line"/>
      <point x="695" y="267" type="line"/>
      <point x="697" y="255" type="line"/>
      <point x="699" y="245" type="line"/>
      <point x="700" y="235" type="line"/>
      <point x="700" y="196" type="line"/>
      <point x="699" y="179" type="line"/>
      <point x="696" y="160" type="line"/>
      <point x="692" y="143" type="line"/>
      <point x="686" y="125" type="line"/>
      <point x="678" y="107" type="line"/>
      <point x="668" y="90" type="line"/>
      <point x="656" y="74" type="line"/>
      <point x="643" y="59" type="line"/>
      <point x="628" y="46" type="line"/>
      <point x="612" y="34" type="line"/>
      <point x="595" y="24" type="line"/>
      <point x="577" y="16" type="line"/>
      <point x="559" y="10" type="line"/>
      <point x="541" y="6" type="line"/>
      <point x="523" y="3" type="line"/>
      <point x="506" y="2" type="line"/>
      <point x="219" y="2" type="line"/>
      <point x="201" y="3" type="line"/>
      <point x="182" y="6" type="line"/>
      <point x="163" y="10" type="line"/>
      <point x="144" y="17" type="line"/>
      <point x="125" y="25" type="line"/>
      <point x="107" y="36" type="line"/>
      <point x="90" y="48" type="line"/>
      <point x="75" y="62" type="line"/>
      <point x="60" y="78" type="line"/>
      <point x="48" y="95" type="line"/>
      <point x="37" y="113" type="line"/>
      <point x="29" y="132" type="line"/>
      <point x="23" y="151" type="line"/>
      <point x="18" y="170" type="line"/>
      <point x="15" y="189" type="line"/>
      <point x="14" y="207" type="line"/>
      <point x="14" y="248" type="line"/>
      <point x="137" y="248" type="line"/>
      <point x="137" y="207" type="line"/>
      <point x="138" y="200" type="line"/>
      <point x="139" y="192" type="line"/>
      <point x="141" y="185" type="line"/>
      <point x="143" y="177" type="line"/>
      <point x="146" y="169" type="line"/>
      <point x="151" y="162" type="line"/>
      <point x="156" y="155" type="line"/>
      <point x="161" y="149" type="line"/>
      <point x="168" y="143" type="line"/>
      <point x="175" y="139" type="line"/>
      <point x="182" y="134" type="line"/>
      <point x="189" y="131" type="line"/>
      <point x="197" y="128" type="line"/>
      <point x="204" y="126" type="line"/>
      <point x="212" y="125" type="line"/>
      <point x="219" y="125" type="line"/>
      <point x="342" y="125" type="line"/>
      <point x="342" y="289" type="line"/>
      <point x="260" y="289" type="line"/>
      <point x="260" y="413" type="line"/>
      <point x="342" y="413" type="line"/>
      <point x="342" y="453" type="line"/>
      <point x="342" y="576" type="line"/>
      <point x="219" y="576" type="line"/>
      <point x="212" y="575" type="line"/>
      <point x="204" y="575" type="line"/>
      <point x="197" y="573" type="line"/>
      <point x="189" y="570" type="line"/>
      <point x="182" y="567" type="line"/>
      <point x="175" y="563" type="line"/>
      <point x="168" y="557" type="line"/>
      <point x="161" y="552" type="line"/>
      <point x="156" y="546" type="line"/>
      <point x="151" y="539" type="line"/>
      <point x="146" y="531" type="line"/>
      <point x="143" y="524" type="line"/>
      <point x="141" y="516" type="line"/>
      <point x="139" y="509" type="line"/>
      <point x="138" y="501" type="line"/>
      <point x="137" y="494" type="line"/>
      <point x="137" y="453" type="line"/>
      <point x="14" y="453" type="line"/>
      <point x="14" y="494" type="line"/>
      <point x="15" y="512" type="line"/>
      <point x="18" y="531" type="line"/>
    </contour>
  </outline>
</glyph>
<glyph name="four" format="2">
  <advance width="724"/>
  <unicode hex="0034"/>
  <outline>
    <contour>
      <point x="695" y="411" type="line"/>
      <point x="695" y="287" type="line"/>
      <point x="636" y="287" type="line"/>
      <point x="636" y="1" type="line"/>
      <point x="308" y="1" type="line"/>
      <point x="308" y="123" type="line"/>
      <point x="308" y="287" type="line"/>
      <point x="31" y="287" type="line"/>
      <point x="31" y="410" type="line"/>
      <point x="185" y="570" type="line"/>
      <point x="185" y="570" type="line"/>
      <point x="308" y="697" type="line"/>
      <point x="636" y="697" type="line"/>
      <point x="636" y="574" type="line"/>
      <point x="636" y="411" type="line"/>
    </contour>
    <contour>
      <point x="308" y="411" type="line"/>
      <point x="308" y="533" type="line"/>
      <point x="199" y="411" type="line"/>
    </contour>
  </outline>
</glyph>
<glyph name="five" format="2">
  <advance width="744"/>
  <unicode hex="0035"/>
  <outline>
    <contour>
      <point x="28" y="190" type="line"/>
      <point x="27" y="208" type="line"/>
      <point x="27" y="249" type="line"/>
      <point x="395" y="249" type="line"/>
      <point x="395" y="208" type="line"/>
      <point x="395" y="126" type="line"/>
      <point x="526" y="126" type="line"/>
      <point x="533" y="127" type="line"/>
      <point x="541" y="129" type="line"/>
      <point x="549" y="132" type="line"/>
      <point x="556" y="135" type="line"/>
      <point x="563" y="140" type="line"/>
      <point x="570" y="144" type="line"/>
      <point x="577" y="150" type="line"/>
      <point x="582" y="156" type="line"/>
      <point x="587" y="163" type="line"/>
      <point x="591" y="170" type="line"/>
      <point x="594" y="178" type="line"/>
      <point x="597" y="186" type="line"/>
      <point x="599" y="193" type="line"/>
      <point x="600" y="201" type="line"/>
      <point x="600" y="208" type="line"/>
      <point x="600" y="290" type="line"/>
      <point x="600" y="294" type="line"/>
      <point x="600" y="297" type="line"/>
      <point x="599" y="301" type="line"/>
      <point x="597" y="305" type="line"/>
      <point x="596" y="309" type="line"/>
      <point x="594" y="312" type="line"/>
      <point x="591" y="316" type="line"/>
      <point x="588" y="319" type="line"/>
      <point x="585" y="322" type="line"/>
      <point x="582" y="324" type="line"/>
      <point x="578" y="326" type="line"/>
      <point x="574" y="328" type="line"/>
      <point x="571" y="329" type="line"/>
      <point x="567" y="330" type="line"/>
      <point x="563" y="331" type="line"/>
      <point x="559" y="331" type="line"/>
      <point x="150" y="331" type="line"/>
      <point x="27" y="331" type="line"/>
      <point x="27" y="413" type="line"/>
      <point x="27" y="454" type="line"/>
      <point x="27" y="495" type="line"/>
      <point x="27" y="700" type="line"/>
      <point x="232" y="700" type="line"/>
      <point x="363" y="700" type="line"/>
      <point x="508" y="700" type="line"/>
      <point x="508" y="699" type="line"/>
      <point x="518" y="700" type="line"/>
      <point x="723" y="700" type="line"/>
      <point x="723" y="577" type="line"/>
      <point x="518" y="577" type="line"/>
      <point x="395" y="577" type="line"/>
      <point x="395" y="454" type="line"/>
      <point x="600" y="454" type="line"/>
      <point x="611" y="453" type="line"/>
      <point x="623" y="452" type="line"/>
      <point x="634" y="449" type="line"/>
      <point x="646" y="445" type="line"/>
      <point x="657" y="440" type="line"/>
      <point x="668" y="434" type="line"/>
      <point x="678" y="426" type="line"/>
      <point x="687" y="418" type="line"/>
      <point x="696" y="408" type="line"/>
      <point x="703" y="398" type="line"/>
      <point x="710" y="388" type="line"/>
      <point x="715" y="376" type="line"/>
      <point x="719" y="365" type="line"/>
      <point x="721" y="354" type="line"/>
      <point x="723" y="342" type="line"/>
      <point x="723" y="331" type="line"/>
      <point x="723" y="208" type="line"/>
      <point x="722" y="190" type="line"/>
      <point x="720" y="171" type="line"/>
      <point x="715" y="152" type="line"/>
      <point x="709" y="133" type="line"/>
      <point x="700" y="114" type="line"/>
      <point x="690" y="96" type="line"/>
      <point x="678" y="79" type="line"/>
      <point x="663" y="63" type="line"/>
      <point x="648" y="49" type="line"/>
      <point x="631" y="37" type="line"/>
      <point x="612" y="26" type="line"/>
      <point x="594" y="18" type="line"/>
      <point x="575" y="11" type="line"/>
      <point x="556" y="7" type="line"/>
      <point x="537" y="4" type="line"/>
      <point x="518" y="3" type="line"/>
      <point x="213" y="4" type="line"/>
      <point x="194" y="7" type="line"/>
      <point x="175" y="11" type="line"/>
      <point x="156" y="18" type="line"/>
      <point x="138" y="26" type="line"/>
      <point x="120" y="37" type="line"/>
      <point x="102" y="49" type="line"/>
      <point x="87" y="63" type="line"/>
      <point x="73" y="79" type="line"/>
      <point x="60" y="96" type="line"/>
      <point x="50" y="114" type="line"/>
      <point x="41" y="133" type="line"/>
      <point x="35" y="152" type="line"/>
      <point x="30" y="171" type="line"/>
    </contour>
  </outline>
</glyph>
<glyph name="six" format="2">
  <advance width="743"/>
  <unicode hex="0036"/>
  <outline>
    <contour>
      <point x="710" y="533" type="line"/>
      <point x="712" y="514" type="line"/>
      <point x="713" y="496" type="line"/>
      <point x="590" y="496" type="line"/>
      <point x="590" y="503" type="line"/>
      <point x="589" y="511" type="line"/>
      <point x="587" y="518" type="line"/>
      <point x="584" y="526" type="line"/>
      <point x="581" y="533" type="line"/>
      <point x="577" y="541" type="line"/>
      <point x="572" y="548" type="line"/>
      <point x="566" y="554" type="line"/>
      <point x="560" y="559" type="line"/>
      <point x="553" y="565" type="line"/>
      <point x="546" y="569" type="line"/>
      <point x="538" y="572" type="line"/>
      <point x="531" y="575" type="line"/>
      <point x="523" y="577" type="line"/>
      <point x="515" y="577" type="line"/>
      <point x="385" y="578" type="line"/>
      <point x="385" y="455" type="line"/>
      <point x="590" y="455" type="line"/>
      <point x="601" y="455" type="line"/>
      <point x="613" y="453" type="line"/>
      <point x="624" y="450" type="line"/>
      <point x="635" y="446" type="line"/>
      <point x="647" y="441" type="line"/>
      <point x="657" y="435" type="line"/>
      <point x="667" y="428" type="line"/>
      <point x="677" y="419" type="line"/>
      <point x="685" y="409" type="line"/>
      <point x="693" y="399" type="line"/>
      <point x="699" y="389" type="line"/>
      <point x="704" y="377" type="line"/>
      <point x="708" y="366" type="line"/>
      <point x="711" y="355" type="line"/>
      <point x="712" y="343" type="line"/>
      <point x="713" y="332" type="line"/>
      <point x="713" y="209" type="line"/>
      <point x="712" y="191" type="line"/>
      <point x="710" y="172" type="line"/>
      <point x="705" y="153" type="line"/>
      <point x="699" y="134" type="line"/>
      <point x="690" y="115" type="line"/>
      <point x="680" y="97" type="line"/>
      <point x="667" y="80" type="line"/>
      <point x="653" y="64" type="line"/>
      <point x="637" y="50" type="line"/>
      <point x="620" y="38" type="line"/>
      <point x="602" y="27" type="line"/>
      <point x="583" y="19" type="line"/>
      <point x="564" y="12" type="line"/>
      <point x="545" y="8" type="line"/>
      <point x="526" y="5" type="line"/>
      <point x="508" y="4" type="line"/>
      <point x="203" y="5" type="line"/>
      <point x="184" y="8" type="line"/>
      <point x="165" y="12" type="line"/>
      <point x="146" y="19" type="line"/>
      <point x="127" y="27" type="line"/>
      <point x="109" y="38" type="line"/>
      <point x="92" y="50" type="line"/>
      <point x="77" y="64" type="line"/>
      <point x="62" y="80" type="line"/>
      <point x="50" y="97" type="line"/>
      <point x="39" y="115" type="line"/>
      <point x="31" y="134" type="line"/>
      <point x="24" y="153" type="line"/>
      <point x="20" y="172" type="line"/>
      <point x="17" y="191" type="line"/>
      <point x="16" y="209" type="line"/>
      <point x="16" y="291" type="line"/>
      <point x="16" y="414" type="line"/>
      <point x="17" y="514" type="line"/>
      <point x="20" y="533" type="line"/>
      <point x="24" y="552" type="line"/>
      <point x="31" y="571" type="line"/>
      <point x="39" y="590" type="line"/>
      <point x="50" y="608" type="line"/>
      <point x="62" y="625" type="line"/>
      <point x="77" y="641" type="line"/>
      <point x="92" y="655" type="line"/>
      <point x="109" y="668" type="line"/>
      <point x="127" y="678" type="line"/>
      <point x="146" y="687" type="line"/>
      <point x="165" y="693" type="line"/>
      <point x="184" y="697" type="line"/>
      <point x="203" y="700" type="line"/>
      <point x="508" y="701" type="line"/>
      <point x="526" y="700" type="line"/>
      <point x="545" y="697" type="line"/>
      <point x="564" y="693" type="line"/>
      <point x="583" y="687" type="line"/>
      <point x="602" y="678" type="line"/>
      <point x="620" y="668" type="line"/>
      <point x="637" y="655" type="line"/>
      <point x="653" y="641" type="line"/>
      <point x="667" y="625" type="line"/>
      <point x="680" y="608" type="line"/>
      <point x="690" y="590" type="line"/>
      <point x="699" y="571" type="line"/>
      <point x="705" y="552" type="line"/>
    </contour>
    <contour>
      <point x="385" y="209" type="line"/>
      <point x="385" y="127" type="line"/>
      <point x="515" y="127" type="line"/>
      <point x="523" y="128" type="line"/>
      <point x="531" y="130" type="line"/>
      <point x="538" y="133" type="line"/>
      <point x="546" y="136" type="line"/>
      <point x="553" y="141" type="line"/>
      <point x="560" y="145" type="line"/>
      <point x="566" y="151" type="line"/>
      <point x="572" y="157" type="line"/>
      <point x="577" y="164" type="line"/>
      <point x="581" y="171" type="line"/>
      <point x="584" y="179" type="line"/>
      <point x="587" y="187" type="line"/>
      <point x="589" y="194" type="line"/>
      <point x="590" y="202" type="line"/>
      <point x="590" y="209" type="line"/>
      <point x="590" y="291" type="line"/>
      <point x="590" y="295" type="line"/>
      <point x="589" y="299" type="line"/>
      <point x="588" y="302" type="line"/>
      <point x="587" y="306" type="line"/>
      <point x="585" y="310" type="line"/>
      <point x="583" y="314" type="line"/>
      <point x="581" y="317" type="line"/>
      <point x="578" y="320" type="line"/>
      <point x="575" y="323" type="line"/>
      <point x="571" y="325" type="line"/>
      <point x="568" y="327" type="line"/>
      <point x="564" y="329" type="line"/>
      <point x="560" y="330" type="line"/>
      <point x="556" y="331" type="line"/>
      <point x="553" y="332" type="line"/>
      <point x="549" y="332" type="line"/>
      <point x="385" y="332" type="line"/>
      <point x="385" y="291" type="line"/>
      <point x="385" y="250" type="line"/>
    </contour>
  </outline>
</glyph>
<glyph name="seven" format="2">
  <advance width="781"/>
  <unicode hex="0037"/>
  <outline>
    <contour>
      <point x="762" y="698" type="line"/>
      <point x="434" y="2" type="line"/>
      <point x="65" y="2" type="line"/>
      <point x="369" y="575" type="line"/>
      <point x="24" y="575" type="line"/>
      <point x="24" y="698" type="line"/>
      <point x="434" y="698" type="line"/>
    </contour>
  </outline>
</glyph>
<glyph name="eight" format="2">
  <advance width="722"/>
  <unicode hex="0038"/>
  <outline>
    <contour>
      <point x="216" y="127" type="line"/>
      <point x="223" y="127" type="line"/>
      <point x="346" y="127" type="line"/>
      <point x="346" y="290" type="line"/>
      <point x="222" y="290" type="line"/>
      <point x="216" y="289" type="line"/>
      <point x="208" y="288" type="line"/>
      <point x="200" y="286" type="line"/>
      <point x="193" y="284" type="line"/>
      <point x="185" y="281" type="line"/>
      <point x="178" y="276" type="line"/>
      <point x="171" y="271" type="line"/>
      <point x="165" y="266" type="line"/>
      <point x="159" y="259" type="line"/>
      <point x="154" y="253" type="line"/>
      <point x="150" y="245" type="line"/>
      <point x="147" y="238" type="line"/>
      <point x="144" y="230" type="line"/>
      <point x="142" y="223" type="line"/>
      <point x="141" y="215" type="line"/>
      <point x="141" y="208" type="line"/>
      <point x="141" y="201" type="line"/>
      <point x="142" y="194" type="line"/>
      <point x="144" y="186" type="line"/>
      <point x="147" y="179" type="line"/>
      <point x="150" y="171" type="line"/>
      <point x="154" y="164" type="line"/>
      <point x="159" y="157" type="line"/>
      <point x="165" y="151" type="line"/>
      <point x="171" y="145" type="line"/>
      <point x="178" y="140" type="line"/>
      <point x="185" y="136" type="line"/>
      <point x="193" y="133" type="line"/>
      <point x="200" y="130" type="line"/>
      <point x="208" y="128" type="line"/>
    </contour>
    <contour>
      <point x="141" y="496" type="line"/>
      <point x="141" y="486" type="line"/>
      <point x="141" y="486" type="line"/>
      <point x="143" y="479" type="line"/>
      <point x="144" y="472" type="line"/>
      <point x="147" y="465" type="line"/>
      <point x="151" y="457" type="line"/>
      <point x="155" y="450" type="line"/>
      <point x="160" y="443" type="line"/>
      <point x="165" y="437" type="line"/>
      <point x="172" y="432" type="line"/>
      <point x="179" y="427" type="line"/>
      <point x="186" y="422" type="line"/>
      <point x="194" y="419" type="line"/>
      <point x="201" y="416" type="line"/>
      <point x="209" y="415" type="line"/>
      <point x="215" y="414" type="line"/>
      <point x="217" y="414" type="line"/>
      <point x="225" y="414" type="line"/>
      <point x="231" y="414" type="line"/>
      <point x="346" y="414" type="line"/>
      <point x="346" y="455" type="line"/>
      <point x="346" y="498" type="line"/>
      <point x="346" y="577" type="line"/>
      <point x="223" y="577" type="line"/>
      <point x="216" y="577" type="line"/>
      <point x="208" y="576" type="line"/>
      <point x="200" y="574" type="line"/>
      <point x="193" y="572" type="line"/>
      <point x="185" y="568" type="line"/>
      <point x="178" y="564" type="line"/>
      <point x="171" y="559" type="line"/>
      <point x="165" y="554" type="line"/>
      <point x="159" y="547" type="line"/>
      <point x="154" y="540" type="line"/>
      <point x="150" y="533" type="line"/>
      <point x="147" y="526" type="line"/>
      <point x="144" y="518" type="line"/>
      <point x="142" y="511" type="line"/>
      <point x="141" y="503" type="line"/>
    </contour>
    <contour>
      <point x="208" y="701" type="line"/>
      <point x="224" y="700" type="line"/>
      <point x="510" y="700" type="line"/>
      <point x="527" y="700" type="line"/>
      <point x="545" y="697" type="line"/>
      <point x="563" y="693" type="line"/>
      <point x="581" y="687" type="line"/>
      <point x="599" y="679" type="line"/>
      <point x="616" y="669" type="line"/>
      <point x="632" y="657" type="line"/>
      <point x="647" y="644" type="line"/>
      <point x="660" y="629" type="line"/>
      <point x="672" y="613" type="line"/>
      <point x="682" y="596" type="line"/>
      <point x="690" y="578" type="line"/>
      <point x="696" y="560" type="line"/>
      <point x="700" y="542" type="line"/>
      <point x="703" y="524" type="line"/>
      <point x="703" y="507" type="line"/>
      <point x="703" y="468" type="line"/>
      <point x="703" y="458" type="line"/>
      <point x="701" y="447" type="line"/>
      <point x="699" y="436" type="line"/>
      <point x="695" y="425" type="line"/>
      <point x="691" y="415" type="line"/>
      <point x="685" y="405" type="line"/>
      <point x="677" y="395" type="line"/>
      <point x="669" y="386" type="line"/>
      <point x="660" y="378" type="line"/>
      <point x="651" y="371" type="line"/>
      <point x="641" y="365" type="line"/>
      <point x="630" y="360" type="line"/>
      <point x="619" y="357" type="line"/>
      <point x="608" y="354" type="line"/>
      <point x="598" y="353" type="line"/>
      <point x="587" y="352" type="line"/>
      <point x="598" y="352" type="line"/>
      <point x="608" y="350" type="line"/>
      <point x="619" y="348" type="line"/>
      <point x="630" y="344" type="line"/>
      <point x="641" y="339" type="line"/>
      <point x="651" y="333" type="line"/>
      <point x="660" y="326" type="line"/>
      <point x="669" y="318" type="line"/>
      <point x="677" y="309" type="line"/>
      <point x="685" y="300" type="line"/>
      <point x="691" y="289" type="line"/>
      <point x="695" y="279" type="line"/>
      <point x="699" y="268" type="line"/>
      <point x="701" y="257" type="line"/>
      <point x="703" y="246" type="line"/>
      <point x="703" y="236" type="line"/>
      <point x="703" y="197" type="line"/>
      <point x="703" y="180" type="line"/>
      <point x="700" y="162" type="line"/>
      <point x="696" y="144" type="line"/>
      <point x="690" y="126" type="line"/>
      <point x="682" y="108" type="line"/>
      <point x="672" y="91" type="line"/>
      <point x="660" y="75" type="line"/>
      <point x="647" y="60" type="line"/>
      <point x="632" y="47" type="line"/>
      <point x="616" y="35" type="line"/>
      <point x="599" y="25" type="line"/>
      <point x="581" y="17" type="line"/>
      <point x="563" y="11" type="line"/>
      <point x="545" y="7" type="line"/>
      <point x="527" y="5" type="line"/>
      <point x="510" y="4" type="line"/>
      <point x="223" y="4" type="line"/>
      <point x="223" y="4" type="line"/>
      <point x="211" y="4" type="line"/>
      <point x="194" y="5" type="line"/>
      <point x="176" y="7" type="line"/>
      <point x="158" y="12" type="line"/>
      <point x="140" y="18" type="line"/>
      <point x="123" y="26" type="line"/>
      <point x="106" y="36" type="line"/>
      <point x="89" y="47" type="line"/>
      <point x="75" y="61" type="line"/>
      <point x="61" y="76" type="line"/>
      <point x="49" y="92" type="line"/>
      <point x="40" y="109" type="line"/>
      <point x="32" y="127" type="line"/>
      <point x="25" y="144" type="line"/>
      <point x="21" y="163" type="line"/>
      <point x="19" y="180" type="line"/>
      <point x="18" y="198" type="line"/>
      <point x="18" y="236" type="line"/>
      <point x="18" y="247" type="line"/>
      <point x="20" y="258" type="line"/>
      <point x="22" y="268" type="line"/>
      <point x="26" y="279" type="line"/>
      <point x="31" y="290" type="line"/>
      <point x="37" y="300" type="line"/>
      <point x="44" y="310" type="line"/>
      <point x="52" y="319" type="line"/>
      <point x="61" y="327" type="line"/>
      <point x="71" y="334" type="line"/>
      <point x="81" y="340" type="line"/>
      <point x="91" y="344" type="line"/>
      <point x="102" y="348" type="line"/>
      <point x="113" y="351" type="line"/>
      <point x="124" y="352" type="line"/>
      <point x="134" y="353" type="line"/>
      <point x="124" y="353" type="line"/>
      <point x="113" y="355" type="line"/>
      <point x="102" y="357" type="line"/>
      <point x="91" y="361" type="line"/>
      <point x="81" y="366" type="line"/>
      <point x="71" y="372" type="line"/>
      <point x="61" y="379" type="line"/>
      <point x="52" y="387" type="line"/>
      <point x="44" y="396" type="line"/>
      <point x="37" y="405" type="line"/>
      <point x="31" y="415" type="line"/>
      <point x="26" y="426" type="line"/>
      <point x="22" y="437" type="line"/>
      <point x="20" y="448" type="line"/>
      <point x="18" y="458" type="line"/>
      <point x="18" y="469" type="line"/>
      <point x="18" y="507" type="line"/>
      <point x="19" y="525" type="line"/>
      <point x="21" y="543" type="line"/>
      <point x="25" y="561" type="line"/>
      <point x="32" y="579" type="line"/>
      <point x="40" y="596" type="line"/>
      <point x="49" y="613" type="line"/>
      <point x="61" y="629" type="line"/>
      <point x="75" y="644" type="line"/>
      <point x="89" y="658" type="line"/>
      <point x="106" y="669" type="line"/>
      <point x="123" y="679" type="line"/>
      <point x="140" y="687" type="line"/>
      <point x="158" y="694" type="line"/>
      <point x="176" y="698" type="line"/>
      <point x="194" y="700" type="line"/>
    </contour>
  </outline>
</glyph>
<glyph name="nine" format="2">
  <advance width="742"/>
  <unicode hex="0039"/>
  <outline>
    <contour>
      <point x="351" y="456" type="line"/>
      <point x="351" y="415" type="line"/>
      <point x="597" y="415" type="line"/>
      <point x="597" y="497" type="line"/>
      <point x="597" y="504" type="line"/>
      <point x="596" y="511" type="line"/>
      <point x="594" y="519" type="line"/>
      <point x="591" y="527" type="line"/>
      <point x="588" y="534" type="line"/>
      <point x="584" y="541" type="line"/>
      <point x="578" y="548" type="line"/>
      <point x="573" y="555" type="line"/>
      <point x="567" y="560" type="line"/>
      <point x="560" y="565" type="line"/>
      <point x="553" y="569" type="line"/>
      <point x="545" y="573" type="line"/>
      <point x="538" y="575" type="line"/>
      <point x="530" y="577" type="line"/>
      <point x="523" y="578" type="line"/>
      <point x="351" y="578" type="line"/>
      <point x="351" y="497" type="line"/>
    </contour>
    <contour>
      <point x="23" y="251" type="line"/>
      <point x="351" y="251" type="line"/>
      <point x="351" y="210" type="line"/>
      <point x="351" y="128" type="line"/>
      <point x="523" y="128" type="line"/>
      <point x="530" y="129" type="line"/>
      <point x="538" y="131" type="line"/>
      <point x="545" y="134" type="line"/>
      <point x="553" y="137" type="line"/>
      <point x="560" y="141" type="line"/>
      <point x="567" y="146" type="line"/>
      <point x="573" y="152" type="line"/>
      <point x="578" y="158" type="line"/>
      <point x="584" y="165" type="line"/>
      <point x="588" y="172" type="line"/>
      <point x="591" y="180" type="line"/>
      <point x="594" y="187" type="line"/>
      <point x="596" y="195" type="line"/>
      <point x="597" y="202" type="line"/>
      <point x="597" y="292" type="line"/>
      <point x="351" y="292" type="line"/>
      <point x="146" y="292" type="line"/>
      <point x="135" y="292" type="line"/>
      <point x="124" y="294" type="line"/>
      <point x="112" y="297" type="line"/>
      <point x="101" y="300" type="line"/>
      <point x="90" y="305" type="line"/>
      <point x="79" y="312" type="line"/>
      <point x="69" y="319" type="line"/>
      <point x="59" y="328" type="line"/>
      <point x="51" y="337" type="line"/>
      <point x="44" y="348" type="line"/>
      <point x="37" y="358" type="line"/>
      <point x="32" y="370" type="line"/>
      <point x="28" y="381" type="line"/>
      <point x="25" y="392" type="line"/>
      <point x="24" y="404" type="line"/>
      <point x="23" y="415" type="line"/>
      <point x="23" y="497" type="line"/>
      <point x="24" y="515" type="line"/>
      <point x="27" y="534" type="line"/>
      <point x="31" y="553" type="line"/>
      <point x="38" y="572" type="line"/>
      <point x="46" y="591" type="line"/>
      <point x="57" y="609" type="line"/>
      <point x="69" y="626" type="line"/>
      <point x="84" y="641" type="line"/>
      <point x="99" y="656" type="line"/>
      <point x="116" y="668" type="line"/>
      <point x="134" y="678" type="line"/>
      <point x="153" y="687" type="line"/>
      <point x="172" y="694" type="line"/>
      <point x="191" y="698" type="line"/>
      <point x="210" y="701" type="line"/>
      <point x="228" y="702" type="line"/>
      <point x="534" y="701" type="line"/>
      <point x="552" y="698" type="line"/>
      <point x="571" y="694" type="line"/>
      <point x="590" y="687" type="line"/>
      <point x="609" y="678" type="line"/>
      <point x="627" y="668" type="line"/>
      <point x="644" y="656" type="line"/>
      <point x="660" y="641" type="line"/>
      <point x="674" y="626" type="line"/>
      <point x="687" y="609" type="line"/>
      <point x="697" y="591" type="line"/>
      <point x="705" y="572" type="line"/>
      <point x="712" y="553" type="line"/>
      <point x="716" y="534" type="line"/>
      <point x="719" y="515" type="line"/>
      <point x="720" y="497" type="line"/>
      <point x="720" y="333" type="line"/>
      <point x="720" y="292" type="line"/>
      <point x="720" y="210" type="line"/>
      <point x="719" y="191" type="line"/>
      <point x="716" y="172" type="line"/>
      <point x="712" y="153" type="line"/>
      <point x="705" y="134" type="line"/>
      <point x="697" y="116" type="line"/>
      <point x="687" y="98" type="line"/>
      <point x="674" y="81" type="line"/>
      <point x="660" y="65" type="line"/>
      <point x="644" y="51" type="line"/>
      <point x="627" y="38" type="line"/>
      <point x="609" y="28" type="line"/>
      <point x="590" y="19" type="line"/>
      <point x="571" y="13" type="line"/>
      <point x="552" y="8" type="line"/>
      <point x="534" y="6" type="line"/>
      <point x="228" y="5" type="line"/>
      <point x="210" y="6" type="line"/>
      <point x="191" y="8" type="line"/>
      <point x="172" y="13" type="line"/>
      <point x="153" y="19" type="line"/>
      <point x="134" y="28" type="line"/>
      <point x="116" y="38" type="line"/>
      <point x="99" y="51" type="line"/>
      <point x="84" y="65" type="line"/>
      <point x="69" y="81" type="line"/>
      <point x="57" y="98" type="line"/>
      <point x="46" y="116" type="line"/>
      <point x="38" y="134" type="line"/>
      <point x="31" y="153" type="line"/>
      <point x="27" y="172" type="line"/>
      <point x="24" y="191" type="line"/>
      <point x="23" y="210" type="line"/>
    </contour>
  </outline>
</glyph>
<glyph name="colon" format="2">
  <advance width="212"/>
  <unicode hex="003A"/>
  <outline>
    <contour>
      <point x="195" y="128" type="line"/>
      <point x="195" y="5" type="line"/>
      <point x="21" y="5" type="line"/>
      <point x="21" y="128" type="line"/>
      <point x="136" y="128" type="line"/>
    </contour>
    <contour>
      <point x="196" y="457" type="line"/>
      <point x="196" y="334" type="line"/>
      <point x="22" y="334" type="line"/>
      <point x="22" y="457" type="line"/>
      <point x="137" y="457" type="line"/>
    </contour>
  </outline>
</glyph>
<glyph name="semicolon" format="2">
  <advance width="238"/>
  <unicode hex="003B"/>
  <outline>
    <contour>
      <point x="212" y="457" type="line"/>
      <point x="212" y="334" type="line"/>
      <point x="22" y="334" type="line"/>
      <point x="22" y="457" type="line"/>
      <point x="137" y="457" type="line"/>
    </contour>
    <contour>
      <point x="129" y="122" type="line"/>
      <point x="14" y="122" type="line"/>
      <point x="14" y="-1" type="line"/>
      <point x="69" y="-1" type="line"/>
      <point x="-13" y="-63" type="line"/>
      <point x="46" y="-116" type="line"/>
      <point x="204" y="-1" type="line"/>
      <point x="204" y="122" type="line"/>
    </contour>
  </outline>
</glyph>
<glyph name="equal" format="2">
  <advance width="410"/>
  <unicode hex="003D"/>
  <outline>
    <contour>
      <point x="381" y="392" type="line"/>
      <point x="381" y="298" type="line"/>
      <point x="46" y="298" type="line"/>
      <point x="46" y="392" type="line"/>
      <point x="161" y="392" type="line"/>
    </contour>
    <contour>
      <point x="382" y="251" type="line"/>
      <point x="382" y="157" type="line"/>
      <point x="47" y="157" type="line"/>
      <point x="47" y="251" type="line"/>
      <point x="162" y="251" type="line"/>
    </contour>
  </outline>
</glyph>
<glyph name="question" format="2">
  <advance width="729"/>
  <unicode hex="003F"/>
  <outline>
    <contour>
      <point x="523" y="126" type="line"/>
      <point x="523" y="3" type="line"/>
      <point x="229" y="3" type="line"/>
      <point x="229" y="126" type="line"/>
      <point x="344" y="126" type="line"/>
    </contour>
    <contour>
      <point x="387" y="371" type="line"/>
      <point x="387" y="452" type="line"/>
      <point x="387" y="575" type="line"/>
      <point x="344" y="575" type="line"/>
      <point x="214" y="574" type="line"/>
      <point x="206" y="573" type="line"/>
      <point x="199" y="571" type="line"/>
      <point x="191" y="569" type="line"/>
      <point x="184" y="565" type="line"/>
      <point x="177" y="561" type="line"/>
      <point x="170" y="556" type="line"/>
      <point x="163" y="551" type="line"/>
      <point x="158" y="545" type="line"/>
      <point x="153" y="538" type="line"/>
      <point x="149" y="530" type="line"/>
      <point x="145" y="523" type="line"/>
      <point x="143" y="515" type="line"/>
      <point x="141" y="508" type="line"/>
      <point x="140" y="500" type="line"/>
      <point x="140" y="493" type="line"/>
      <point x="140" y="452" type="line"/>
      <point x="17" y="452" type="line"/>
      <point x="17" y="493" type="line"/>
      <point x="18" y="511" type="line"/>
      <point x="20" y="530" type="line"/>
      <point x="25" y="549" type="line"/>
      <point x="31" y="568" type="line"/>
      <point x="40" y="587" type="line"/>
      <point x="50" y="605" type="line"/>
      <point x="63" y="621" type="line"/>
      <point x="77" y="637" type="line"/>
      <point x="93" y="651" type="line"/>
      <point x="110" y="664" type="line"/>
      <point x="127" y="674" type="line"/>
      <point x="146" y="683" type="line"/>
      <point x="165" y="689" type="line"/>
      <point x="184" y="694" type="line"/>
      <point x="203" y="696" type="line"/>
      <point x="221" y="697" type="line"/>
      <point x="525" y="696" type="line"/>
      <point x="544" y="694" type="line"/>
      <point x="563" y="689" type="line"/>
      <point x="582" y="683" type="line"/>
      <point x="601" y="674" type="line"/>
      <point x="618" y="664" type="line"/>
      <point x="635" y="651" type="line"/>
      <point x="651" y="637" type="line"/>
      <point x="665" y="621" type="line"/>
      <point x="678" y="605" type="line"/>
      <point x="688" y="587" type="line"/>
      <point x="697" y="568" type="line"/>
      <point x="703" y="549" type="line"/>
      <point x="707" y="530" type="line"/>
      <point x="710" y="511" type="line"/>
      <point x="711" y="411" type="line"/>
      <point x="711" y="371" type="line"/>
      <point x="710" y="360" type="line"/>
      <point x="709" y="348" type="line"/>
      <point x="706" y="337" type="line"/>
      <point x="702" y="325" type="line"/>
      <point x="697" y="314" type="line"/>
      <point x="691" y="304" type="line"/>
      <point x="684" y="293" type="line"/>
      <point x="675" y="284" type="line"/>
      <point x="666" y="275" type="line"/>
      <point x="655" y="268" type="line"/>
      <point x="645" y="262" type="line"/>
      <point x="633" y="257" type="line"/>
      <point x="622" y="253" type="line"/>
      <point x="611" y="250" type="line"/>
      <point x="599" y="249" type="line"/>
      <point x="588" y="248" type="line"/>
      <point x="523" y="248" type="line"/>
      <point x="523" y="185" type="line"/>
      <point x="229" y="185" type="line"/>
      <point x="229" y="248" type="line"/>
      <point x="229" y="259" type="line"/>
      <point x="231" y="270" type="line"/>
      <point x="234" y="282" type="line"/>
      <point x="237" y="293" type="line"/>
      <point x="242" y="304" type="line"/>
      <point x="249" y="315" type="line"/>
      <point x="256" y="325" type="line"/>
      <point x="265" y="335" type="line"/>
      <point x="274" y="343" type="line"/>
      <point x="284" y="351" type="line"/>
      <point x="295" y="357" type="line"/>
      <point x="306" y="362" type="line"/>
      <point x="317" y="366" type="line"/>
      <point x="329" y="369" type="line"/>
      <point x="340" y="370" type="line"/>
      <point x="351" y="371" type="line"/>
    </contour>
  </outline>
</glyph>
<glyph name="B" format="2">
  <advance width="686"/>
  <unicode hex="0042"/>
  <outline>
    <contour>
      <point x="430" y="330" type="line"/>
      <point x="422" y="330" type="line"/>
      <point x="382" y="330" type="line"/>
      <point x="382" y="166" type="line"/>
      <point x="422" y="166" type="line"/>
      <point x="430" y="167" type="line"/>
      <point x="437" y="168" type="line"/>
      <point x="445" y="170" type="line"/>
      <point x="453" y="172" type="line"/>
      <point x="460" y="175" type="line"/>
      <point x="467" y="180" type="line"/>
      <point x="474" y="185" type="line"/>
      <point x="480" y="191" type="line"/>
      <point x="486" y="197" type="line"/>
      <point x="491" y="204" type="line"/>
      <point x="495" y="211" type="line"/>
      <point x="498" y="218" type="line"/>
      <point x="501" y="226" type="line"/>
      <point x="503" y="233" type="line"/>
      <point x="504" y="241" type="line"/>
      <point x="504" y="248" type="line"/>
      <point x="504" y="256" type="line"/>
      <point x="503" y="263" type="line"/>
      <point x="501" y="271" type="line"/>
      <point x="498" y="278" type="line"/>
      <point x="495" y="286" type="line"/>
      <point x="491" y="293" type="line"/>
      <point x="486" y="300" type="line"/>
      <point x="480" y="306" type="line"/>
      <point x="474" y="312" type="line"/>
      <point x="467" y="317" type="line"/>
      <point x="460" y="321" type="line"/>
      <point x="453" y="325" type="line"/>
      <point x="445" y="327" type="line"/>
      <point x="437" y="329" type="line"/>
    </contour>
    <contour>
      <point x="430" y="413" type="line"/>
      <point x="437" y="414" type="line"/>
      <point x="445" y="415" type="line"/>
      <point x="453" y="418" type="line"/>
      <point x="460" y="421" type="line"/>
      <point x="467" y="426" type="line"/>
      <point x="474" y="431" type="line"/>
      <point x="480" y="436" type="line"/>
      <point x="486" y="443" type="line"/>
      <point x="491" y="449" type="line"/>
      <point x="495" y="457" type="line"/>
      <point x="498" y="464" type="line"/>
      <point x="501" y="472" type="line"/>
      <point x="503" y="479" type="line"/>
      <point x="504" y="487" type="line"/>
      <point x="504" y="494" type="line"/>
      <point x="504" y="502" type="line"/>
      <point x="503" y="509" type="line"/>
      <point x="501" y="517" type="line"/>
      <point x="498" y="524" type="line"/>
      <point x="495" y="532" type="line"/>
      <point x="491" y="539" type="line"/>
      <point x="486" y="546" type="line"/>
      <point x="480" y="552" type="line"/>
      <point x="474" y="558" type="line"/>
      <point x="467" y="563" type="line"/>
      <point x="460" y="567" type="line"/>
      <point x="453" y="570" type="line"/>
      <point x="445" y="573" type="line"/>
      <point x="437" y="575" type="line"/>
      <point x="430" y="576" type="line"/>
      <point x="422" y="576" type="line"/>
      <point x="382" y="576" type="line"/>
      <point x="382" y="412" type="line"/>
      <point x="422" y="412" type="line"/>
    </contour>
    <contour>
      <point x="660" y="310" type="line"/>
      <point x="665" y="289" type="line"/>
      <point x="668" y="248" type="line"/>
      <point x="667" y="226" type="line"/>
      <point x="664" y="204" type="line"/>
      <point x="659" y="181" type="line"/>
      <point x="651" y="158" type="line"/>
      <point x="641" y="136" type="line"/>
      <point x="628" y="114" type="line"/>
      <point x="613" y="93" type="line"/>
      <point x="596" y="74" type="line"/>
      <point x="577" y="58" type="line"/>
      <point x="557" y="42" type="line"/>
      <point x="535" y="30" type="line"/>
      <point x="513" y="20" type="line"/>
      <point x="490" y="12" type="line"/>
      <point x="467" y="7" type="line"/>
      <point x="445" y="4" type="line"/>
      <point x="422" y="3" type="line"/>
      <point x="54" y="3" type="line"/>
      <point x="13" y="3" type="line"/>
      <point x="13" y="699" type="line"/>
      <point x="422" y="699" type="line"/>
      <point x="441" y="698" type="line"/>
      <point x="460" y="695" type="line"/>
      <point x="479" y="691" type="line"/>
      <point x="498" y="685" type="line"/>
      <point x="516" y="676" type="line"/>
      <point x="534" y="666" type="line"/>
      <point x="552" y="653" type="line"/>
      <point x="567" y="639" type="line"/>
      <point x="581" y="623" type="line"/>
      <point x="594" y="606" type="line"/>
      <point x="604" y="588" type="line"/>
      <point x="613" y="570" type="line"/>
      <point x="619" y="551" type="line"/>
      <point x="624" y="531" type="line"/>
      <point x="626" y="513" type="line"/>
      <point x="627" y="494" type="line"/>
      <point x="626" y="473" type="line"/>
      <point x="623" y="452" type="line"/>
      <point x="617" y="430" type="line"/>
      <point x="609" y="409" type="line"/>
      <point x="623" y="391" type="line"/>
      <point x="635" y="372" type="line"/>
      <point x="646" y="351" type="line"/>
      <point x="654" y="330" type="line"/>
    </contour>
  </outline>
</glyph>
<glyph name="F" format="2">
  <advance width="631"/>
  <unicode hex="0046"/>
  <outline>
    <contour>
      <point x="360" y="412" type="line"/>
      <point x="565" y="412" type="line"/>
      <point x="565" y="330" type="line"/>
      <point x="360" y="330" type="line"/>
      <point x="360" y="125" type="line"/>
      <point x="360" y="2" type="line"/>
      <point x="33" y="2" type="line"/>
      <point x="33" y="576" type="line"/>
      <point x="33" y="658" type="line"/>
      <point x="33" y="699" type="line"/>
      <point x="360" y="699" type="line"/>
      <point x="606" y="699" type="line"/>
      <point x="606" y="576" type="line"/>
      <point x="360" y="576" type="line"/>
    </contour>
  </outline>
</glyph>
<glyph name="H" format="2">
  <advance width="779"/>
  <unicode hex="0048"/>
  <outline>
    <contour>
      <point x="636" y="410" type="line"/>
      <point x="636" y="697" type="line"/>
      <point x="759" y="697" type="line"/>
      <point x="759" y="0" type="line"/>
      <point x="636" y="0" type="line"/>
      <point x="636" y="232" type="line"/>
      <point x="636" y="328" type="line"/>
      <point x="390" y="328" type="line"/>
      <point x="390" y="0" type="line"/>
      <point x="21" y="0" type="line"/>
      <point x="21" y="472" type="line"/>
      <point x="21" y="697" type="line"/>
      <point x="390" y="697" type="line"/>
      <point x="390" y="464" type="line"/>
      <point x="390" y="410" type="line"/>
    </contour>
  </outline>
</glyph>
<glyph name="N" format="2">
  <advance width="794"/>
  <unicode hex="004E"/>
  <outline>
    <contour>
      <point x="395" y="697" type="line"/>
      <point x="641" y="232" type="line"/>
      <point x="641" y="472" type="line"/>
      <point x="641" y="697" type="line"/>
      <point x="763" y="697" type="line"/>
      <point x="763" y="0" type="line"/>
      <point x="641" y="0" type="line"/>
      <point x="395" y="464" type="line"/>
      <point x="395" y="0" type="line"/>
      <point x="26" y="0" type="line"/>
      <point x="26" y="472" type="line"/>
      <point x="26" y="697" type="line"/>
    </contour>
  </outline>
</glyph>
<glyph name="P" format="2">
  <advance width="660"/>
  <unicode hex="0050"/>
  <outline>
    <contour>
      <point x="468" y="293" type="line"/>
      <point x="449" y="291" type="line"/>
      <point x="431" y="290" type="line"/>
      <point x="390" y="290" type="line"/>
      <point x="390" y="167" type="line"/>
      <point x="390" y="3" type="line"/>
      <point x="226" y="3" type="line"/>
      <point x="62" y="3" type="line"/>
      <point x="21" y="3" type="line"/>
      <point x="21" y="699" type="line"/>
      <point x="431" y="699" type="line"/>
      <point x="449" y="699" type="line"/>
      <point x="468" y="696" type="line"/>
      <point x="487" y="691" type="line"/>
      <point x="506" y="685" type="line"/>
      <point x="525" y="676" type="line"/>
      <point x="543" y="666" type="line"/>
      <point x="560" y="654" type="line"/>
      <point x="576" y="639" type="line"/>
      <point x="590" y="624" type="line"/>
      <point x="603" y="607" type="line"/>
      <point x="613" y="589" type="line"/>
      <point x="622" y="570" type="line"/>
      <point x="628" y="551" type="line"/>
      <point x="632" y="532" type="line"/>
      <point x="635" y="513" type="line"/>
      <point x="636" y="495" type="line"/>
      <point x="635" y="471" type="line"/>
      <point x="632" y="457" type="line"/>
      <point x="632" y="455" type="line"/>
      <point x="628" y="440" type="line"/>
      <point x="628" y="438" type="line"/>
      <point x="626" y="434" type="line"/>
      <point x="622" y="421" type="line"/>
      <point x="622" y="419" type="line"/>
      <point x="613" y="401" type="line"/>
      <point x="608" y="393" type="line"/>
      <point x="600" y="378" type="line"/>
      <point x="596" y="374" type="line"/>
      <point x="584" y="358" type="line"/>
      <point x="580" y="354" type="line"/>
      <point x="564" y="339" type="line"/>
      <point x="560" y="336" type="line"/>
      <point x="541" y="322" type="line"/>
      <point x="525" y="312" type="line"/>
      <point x="506" y="304" type="line"/>
      <point x="487" y="297" type="line"/>
    </contour>
    <contour>
      <point x="513" y="495" type="line"/>
      <point x="512" y="502" type="line"/>
      <point x="512" y="509" type="line"/>
      <point x="510" y="517" type="line"/>
      <point x="507" y="525" type="line"/>
      <point x="504" y="532" type="line"/>
      <point x="500" y="539" type="line"/>
      <point x="495" y="546" type="line"/>
      <point x="489" y="553" type="line"/>
      <point x="483" y="558" type="line"/>
      <point x="476" y="563" type="line"/>
      <point x="468" y="567" type="line"/>
      <point x="461" y="571" type="line"/>
      <point x="454" y="573" type="line"/>
      <point x="446" y="575" type="line"/>
      <point x="439" y="576" type="line"/>
      <point x="431" y="576" type="line"/>
      <point x="390" y="576" type="line"/>
      <point x="390" y="412" type="line"/>
      <point x="431" y="412" type="line"/>
      <point x="439" y="413" type="line"/>
      <point x="446" y="414" type="line"/>
      <point x="454" y="416" type="line"/>
      <point x="461" y="418" type="line"/>
      <point x="468" y="422" type="line"/>
      <point x="476" y="426" type="line"/>
      <point x="483" y="431" type="line"/>
      <point x="489" y="437" type="line"/>
      <point x="495" y="443" type="line"/>
      <point x="500" y="450" type="line"/>
      <point x="504" y="457" type="line"/>
      <point x="507" y="464" type="line"/>
      <point x="510" y="472" type="line"/>
      <point x="512" y="480" type="line"/>
      <point x="512" y="487" type="line"/>
    </contour>
  </outline>
</glyph>
<glyph name="Q" format="2">
  <advance width="755"/>
  <unicode hex="0051"/>
  <outline>
    <contour>
      <point x="747" y="0" type="line"/>
      <point x="602" y="0" type="line"/>
      <point x="578" y="23" type="line"/>
      <point x="438" y="163" type="line"/>
      <point x="520" y="246" type="line"/>
      <point x="582" y="184" type="line"/>
    </contour>
    <contour>
      <point x="723" y="180" type="line"/>
      <point x="719" y="156" type="line"/>
      <point x="710" y="127" type="line"/>
      <point x="694" y="102" type="line"/>
      <point x="602" y="204" type="line"/>
      <point x="602" y="499" type="line"/>
      <point x="601" y="506" type="line"/>
      <point x="599" y="514" type="line"/>
      <point x="596" y="521" type="line"/>
      <point x="593" y="529" type="line"/>
      <point x="589" y="536" type="line"/>
      <point x="583" y="543" type="line"/>
      <point x="578" y="549" type="line"/>
      <point x="572" y="555" type="line"/>
      <point x="565" y="560" type="line"/>
      <point x="558" y="564" type="line"/>
      <point x="550" y="568" type="line"/>
      <point x="542" y="570" type="line"/>
      <point x="535" y="572" type="line"/>
      <point x="527" y="573" type="line"/>
      <point x="397" y="573" type="line"/>
      <point x="397" y="122" type="line"/>
      <point x="438" y="122" type="line"/>
      <point x="558" y="3" type="line"/>
      <point x="538" y="0" type="line"/>
      <point x="520" y="0" type="line"/>
      <point x="215" y="0" type="line"/>
      <point x="196" y="3" type="line"/>
      <point x="177" y="8" type="line"/>
      <point x="158" y="14" type="line"/>
      <point x="139" y="22" type="line"/>
      <point x="121" y="33" type="line"/>
      <point x="104" y="45" type="line"/>
      <point x="89" y="60" type="line"/>
      <point x="74" y="75" type="line"/>
      <point x="62" y="92" type="line"/>
      <point x="51" y="110" type="line"/>
      <point x="43" y="129" type="line"/>
      <point x="36" y="148" type="line"/>
      <point x="32" y="167" type="line"/>
      <point x="29" y="186" type="line"/>
      <point x="28" y="204" type="line"/>
      <point x="28" y="409" type="line"/>
      <point x="29" y="510" type="line"/>
      <point x="32" y="528" type="line"/>
      <point x="36" y="548" type="line"/>
      <point x="43" y="567" type="line"/>
      <point x="51" y="585" type="line"/>
      <point x="62" y="603" type="line"/>
      <point x="74" y="620" type="line"/>
      <point x="89" y="636" type="line"/>
      <point x="104" y="650" type="line"/>
      <point x="121" y="663" type="line"/>
      <point x="139" y="673" type="line"/>
      <point x="158" y="682" type="line"/>
      <point x="177" y="688" type="line"/>
      <point x="196" y="693" type="line"/>
      <point x="215" y="695" type="line"/>
      <point x="520" y="696" type="line"/>
      <point x="538" y="695" type="line"/>
      <point x="558" y="693" type="line"/>
      <point x="577" y="688" type="line"/>
      <point x="596" y="682" type="line"/>
      <point x="614" y="673" type="line"/>
      <point x="632" y="663" type="line"/>
      <point x="649" y="650" type="line"/>
      <point x="665" y="636" type="line"/>
      <point x="679" y="620" type="line"/>
      <point x="692" y="603" type="line"/>
      <point x="702" y="585" type="line"/>
      <point x="711" y="567" type="line"/>
      <point x="717" y="548" type="line"/>
      <point x="722" y="528" type="line"/>
      <point x="724" y="510" type="line"/>
      <point x="725" y="491" type="line"/>
    </contour>
  </outline>
</glyph>
<glyph name="R" format="2">
  <advance width="739"/>
  <unicode hex="0052"/>
  <outline>
    <contour>
      <point x="641" y="533" type="line"/>
      <point x="644" y="514" type="line"/>
      <point x="645" y="496" type="line"/>
      <point x="644" y="473" type="line"/>
      <point x="639" y="448" type="line"/>
      <point x="632" y="424" type="line"/>
      <point x="621" y="401" type="line"/>
      <point x="608" y="378" type="line"/>
      <point x="591" y="357" type="line"/>
      <point x="571" y="339" type="line"/>
      <point x="550" y="323" type="line"/>
      <point x="727" y="4" type="line"/>
      <point x="481" y="4" type="line"/>
      <point x="479" y="8" type="line"/>
      <point x="399" y="148" type="line"/>
      <point x="399" y="4" type="line"/>
      <point x="71" y="4" type="line"/>
      <point x="30" y="4" type="line"/>
      <point x="30" y="701" type="line"/>
      <point x="440" y="701" type="line"/>
      <point x="459" y="700" type="line"/>
      <point x="477" y="697" type="line"/>
      <point x="496" y="693" type="line"/>
      <point x="515" y="687" type="line"/>
      <point x="534" y="678" type="line"/>
      <point x="552" y="668" type="line"/>
      <point x="569" y="655" type="line"/>
      <point x="585" y="641" type="line"/>
      <point x="599" y="625" type="line"/>
      <point x="611" y="608" type="line"/>
      <point x="622" y="590" type="line"/>
      <point x="630" y="572" type="line"/>
      <point x="637" y="552" type="line"/>
    </contour>
    <contour>
      <point x="522" y="496" type="line"/>
      <point x="521" y="503" type="line"/>
      <point x="520" y="511" type="line"/>
      <point x="519" y="518" type="line"/>
      <point x="516" y="526" type="line"/>
      <point x="513" y="533" type="line"/>
      <point x="508" y="541" type="line"/>
      <point x="503" y="548" type="line"/>
      <point x="498" y="554" type="line"/>
      <point x="491" y="560" type="line"/>
      <point x="485" y="565" type="line"/>
      <point x="478" y="569" type="line"/>
      <point x="470" y="572" type="line"/>
      <point x="463" y="575" type="line"/>
      <point x="455" y="577" type="line"/>
      <point x="447" y="577" type="line"/>
      <point x="440" y="578" type="line"/>
      <point x="399" y="578" type="line"/>
      <point x="399" y="414" type="line"/>
      <point x="440" y="414" type="line"/>
      <point x="447" y="414" type="line"/>
      <point x="455" y="416" type="line"/>
      <point x="463" y="417" type="line"/>
      <point x="470" y="420" type="line"/>
      <point x="478" y="423" type="line"/>
      <point x="485" y="428" type="line"/>
      <point x="491" y="432" type="line"/>
      <point x="498" y="438" type="line"/>
      <point x="503" y="444" type="line"/>
      <point x="508" y="451" type="line"/>
      <point x="513" y="458" type="line"/>
      <point x="516" y="466" type="line"/>
      <point x="519" y="473" type="line"/>
      <point x="520" y="481" type="line"/>
      <point x="521" y="489" type="line"/>
    </contour>
  </outline>
</glyph>
<glyph name="S" format="2">
  <advance width="750"/>
  <unicode hex="0053"/>
  <outline>
    <contour>
      <point x="720" y="351" type="line"/>
      <point x="722" y="340" type="line"/>
      <point x="722" y="329" type="line"/>
      <point x="722" y="206" type="line"/>
      <point x="721" y="187" type="line"/>
      <point x="719" y="168" type="line"/>
      <point x="714" y="149" type="line"/>
      <point x="708" y="130" type="line"/>
      <point x="699" y="112" type="line"/>
      <point x="689" y="94" type="line"/>
      <point x="677" y="77" type="line"/>
      <point x="662" y="61" type="line"/>
      <point x="647" y="47" type="line"/>
      <point x="630" y="34" type="line"/>
      <point x="611" y="24" type="line"/>
      <point x="593" y="15" type="line"/>
      <point x="574" y="9" type="line"/>
      <point x="555" y="4" type="line"/>
      <point x="536" y="2" type="line"/>
      <point x="517" y="1" type="line"/>
      <point x="212" y="2" type="line"/>
      <point x="193" y="4" type="line"/>
      <point x="174" y="9" type="line"/>
      <point x="155" y="15" type="line"/>
      <point x="136" y="24" type="line"/>
      <point x="119" y="34" type="line"/>
      <point x="101" y="47" type="line"/>
      <point x="86" y="61" type="line"/>
      <point x="72" y="77" type="line"/>
      <point x="59" y="94" type="line"/>
      <point x="49" y="112" type="line"/>
      <point x="40" y="130" type="line"/>
      <point x="34" y="149" type="line"/>
      <point x="29" y="168" type="line"/>
      <point x="27" y="187" type="line"/>
      <point x="26" y="206" type="line"/>
      <point x="26" y="288" type="line"/>
      <point x="394" y="288" type="line"/>
      <point x="394" y="124" type="line"/>
      <point x="525" y="124" type="line"/>
      <point x="532" y="125" type="line"/>
      <point x="540" y="127" type="line"/>
      <point x="548" y="130" type="line"/>
      <point x="555" y="133" type="line"/>
      <point x="562" y="137" type="line"/>
      <point x="569" y="142" type="line"/>
      <point x="575" y="148" type="line"/>
      <point x="581" y="154" type="line"/>
      <point x="586" y="161" type="line"/>
      <point x="590" y="168" type="line"/>
      <point x="593" y="176" type="line"/>
      <point x="596" y="183" type="line"/>
      <point x="598" y="191" type="line"/>
      <point x="599" y="198" type="line"/>
      <point x="599" y="206" type="line"/>
      <point x="599" y="292" type="line"/>
      <point x="598" y="295" type="line"/>
      <point x="598" y="299" type="line"/>
      <point x="596" y="303" type="line"/>
      <point x="595" y="307" type="line"/>
      <point x="593" y="310" type="line"/>
      <point x="590" y="313" type="line"/>
      <point x="587" y="317" type="line"/>
      <point x="584" y="320" type="line"/>
      <point x="581" y="322" type="line"/>
      <point x="577" y="324" type="line"/>
      <point x="573" y="326" type="line"/>
      <point x="570" y="327" type="line"/>
      <point x="566" y="328" type="line"/>
      <point x="562" y="328" type="line"/>
      <point x="558" y="329" type="line"/>
      <point x="149" y="329" type="line"/>
      <point x="138" y="329" type="line"/>
      <point x="126" y="331" type="line"/>
      <point x="115" y="333" type="line"/>
      <point x="103" y="337" type="line"/>
      <point x="92" y="342" type="line"/>
      <point x="82" y="349" type="line"/>
      <point x="71" y="356" type="line"/>
      <point x="62" y="365" type="line"/>
      <point x="53" y="374" type="line"/>
      <point x="46" y="384" type="line"/>
      <point x="39" y="395" type="line"/>
      <point x="34" y="406" type="line"/>
      <point x="31" y="418" type="line"/>
      <point x="28" y="429" type="line"/>
      <point x="26" y="441" type="line"/>
      <point x="26" y="452" type="line"/>
      <point x="27" y="511" type="line"/>
      <point x="29" y="530" type="line"/>
      <point x="34" y="549" type="line"/>
      <point x="40" y="568" type="line"/>
      <point x="49" y="587" type="line"/>
      <point x="59" y="605" type="line"/>
      <point x="72" y="622" type="line"/>
      <point x="86" y="637" type="line"/>
      <point x="101" y="652" type="line"/>
      <point x="119" y="664" type="line"/>
      <point x="136" y="674" type="line"/>
      <point x="155" y="683" type="line"/>
      <point x="174" y="689" type="line"/>
      <point x="193" y="694" type="line"/>
      <point x="212" y="697" type="line"/>
      <point x="517" y="697" type="line"/>
      <point x="536" y="697" type="line"/>
      <point x="555" y="694" type="line"/>
      <point x="574" y="689" type="line"/>
      <point x="593" y="683" type="line"/>
      <point x="611" y="674" type="line"/>
      <point x="630" y="664" type="line"/>
      <point x="647" y="652" type="line"/>
      <point x="662" y="637" type="line"/>
      <point x="677" y="622" type="line"/>
      <point x="689" y="605" type="line"/>
      <point x="699" y="587" type="line"/>
      <point x="708" y="568" type="line"/>
      <point x="714" y="549" type="line"/>
      <point x="719" y="530" type="line"/>
      <point x="721" y="511" type="line"/>
      <point x="722" y="493" type="line"/>
      <point x="599" y="493" type="line"/>
      <point x="599" y="500" type="line"/>
      <point x="598" y="507" type="line"/>
      <point x="596" y="515" type="line"/>
      <point x="593" y="523" type="line"/>
      <point x="590" y="530" type="line"/>
      <point x="586" y="537" type="line"/>
      <point x="581" y="544" type="line"/>
      <point x="575" y="550" type="line"/>
      <point x="569" y="556" type="line"/>
      <point x="562" y="561" type="line"/>
      <point x="555" y="565" type="line"/>
      <point x="548" y="569" type="line"/>
      <point x="540" y="571" type="line"/>
      <point x="532" y="573" type="line"/>
      <point x="525" y="574" type="line"/>
      <point x="394" y="574" type="line"/>
      <point x="394" y="452" type="line"/>
      <point x="599" y="452" type="line"/>
      <point x="610" y="451" type="line"/>
      <point x="622" y="449" type="line"/>
      <point x="633" y="447" type="line"/>
      <point x="645" y="443" type="line"/>
      <point x="656" y="438" type="line"/>
      <point x="667" y="431" type="line"/>
      <point x="677" y="424" type="line"/>
      <point x="686" y="416" type="line"/>
      <point x="695" y="406" type="line"/>
      <point x="702" y="396" type="line"/>
      <point x="708" y="385" type="line"/>
      <point x="714" y="374" type="line"/>
      <point x="718" y="363" type="line"/>
    </contour>
  </outline>
</glyph>
<glyph name="U" format="2">
  <advance width="761"/>
  <unicode hex="0055"/>
  <outline>
    <contour>
      <point x="731" y="698" type="line"/>
      <point x="731" y="329" type="line"/>
      <point x="731" y="187" type="line"/>
      <point x="728" y="168" type="line"/>
      <point x="724" y="149" type="line"/>
      <point x="717" y="130" type="line"/>
      <point x="709" y="112" type="line"/>
      <point x="698" y="94" type="line"/>
      <point x="686" y="77" type="line"/>
      <point x="671" y="61" type="line"/>
      <point x="656" y="47" type="line"/>
      <point x="639" y="34" type="line"/>
      <point x="621" y="24" type="line"/>
      <point x="602" y="15" type="line"/>
      <point x="583" y="9" type="line"/>
      <point x="564" y="4" type="line"/>
      <point x="545" y="2" type="line"/>
      <point x="240" y="1" type="line"/>
      <point x="221" y="2" type="line"/>
      <point x="203" y="4" type="line"/>
      <point x="184" y="9" type="line"/>
      <point x="165" y="15" type="line"/>
      <point x="146" y="24" type="line"/>
      <point x="128" y="34" type="line"/>
      <point x="111" y="47" type="line"/>
      <point x="95" y="61" type="line"/>
      <point x="81" y="77" type="line"/>
      <point x="68" y="94" type="line"/>
      <point x="58" y="112" type="line"/>
      <point x="49" y="130" type="line"/>
      <point x="43" y="149" type="line"/>
      <point x="39" y="168" type="line"/>
      <point x="36" y="187" type="line"/>
      <point x="35" y="493" type="line"/>
      <point x="35" y="698" type="line"/>
      <point x="240" y="698" type="line"/>
      <point x="404" y="698" type="line"/>
      <point x="404" y="124" type="line"/>
      <point x="527" y="124" type="line"/>
      <point x="534" y="124" type="line"/>
      <point x="542" y="125" type="line"/>
      <point x="549" y="127" type="line"/>
      <point x="557" y="130" type="line"/>
      <point x="564" y="133" type="line"/>
      <point x="572" y="137" type="line"/>
      <point x="578" y="142" type="line"/>
      <point x="584" y="148" type="line"/>
      <point x="590" y="154" type="line"/>
      <point x="595" y="161" type="line"/>
      <point x="600" y="168" type="line"/>
      <point x="603" y="176" type="line"/>
      <point x="605" y="183" type="line"/>
      <point x="607" y="191" type="line"/>
      <point x="608" y="198" type="line"/>
      <point x="609" y="698" type="line"/>
    </contour>
  </outline>
</glyph>
<glyph name="Z" format="2">
  <advance width="731"/>
  <unicode hex="005A"/>
  <outline>
    <contour>
      <point x="711" y="129" type="line"/>
      <point x="711" y="7" type="line"/>
      <point x="15" y="7" type="line"/>
      <point x="15" y="129" type="line"/>
      <point x="383" y="580" type="line"/>
      <point x="15" y="580" type="line"/>
      <point x="15" y="703" type="line"/>
      <point x="711" y="703" type="line"/>
      <point x="711" y="580" type="line"/>
      <point x="383" y="129" type="line"/>
    </contour>
  </outline>
</glyph>
<glyph name="underscore" format="2">
  <advance width="413"/>
  <unicode hex="005F"/>
  <outline>
    <contour>
      <point x="394" y="-2" type="line"/>
      <point x="394" y="-100" type="line"/>
      <point x="20" y="-99" type="line"/>
      <point x="20" y="-1" type="line"/>
      <point x="135" y="-1" type="line"/>
    </contour>
  </outline>
</glyph>
<glyph name="a" format="2">
  <advance width="844"/>
  <unicode hex="0061"/>
  <outline>
    <contour>
      <point x="409" y="205" type="line"/>
      <point x="214" y="205" type="line"/>
      <point x="141" y="0" type="line"/>
      <point x="18" y="0" type="line"/>
      <point x="264" y="696" type="line"/>
      <point x="592" y="696" type="line"/>
      <point x="838" y="0" type="line"/>
      <point x="469" y="0" type="line"/>
    </contour>
    <contour>
      <point x="385" y="287" type="line"/>
      <point x="320" y="506" type="line"/>
      <point x="243" y="287" type="line"/>
    </contour>
  </outline>
</glyph>
<glyph name="c" format="2">
  <advance width="723"/>
  <unicode hex="0063"/>
  <outline>
    <contour>
      <point x="505" y="696" type="line"/>
      <point x="523" y="696" type="line"/>
      <point x="542" y="693" type="line"/>
      <point x="561" y="688" type="line"/>
      <point x="580" y="682" type="line"/>
      <point x="598" y="673" type="line"/>
      <point x="616" y="663" type="line"/>
      <point x="634" y="651" type="line"/>
      <point x="649" y="636" type="line"/>
      <point x="664" y="621" type="line"/>
      <point x="676" y="604" type="line"/>
      <point x="686" y="586" type="line"/>
      <point x="695" y="567" type="line"/>
      <point x="701" y="548" type="line"/>
      <point x="706" y="529" type="line"/>
      <point x="708" y="510" type="line"/>
      <point x="709" y="492" type="line"/>
      <point x="586" y="492" type="line"/>
      <point x="586" y="499" type="line"/>
      <point x="585" y="506" type="line"/>
      <point x="583" y="514" type="line"/>
      <point x="581" y="522" type="line"/>
      <point x="577" y="529" type="line"/>
      <point x="573" y="536" type="line"/>
      <point x="568" y="543" type="line"/>
      <point x="562" y="550" type="line"/>
      <point x="556" y="555" type="line"/>
      <point x="549" y="560" type="line"/>
      <point x="542" y="564" type="line"/>
      <point x="535" y="568" type="line"/>
      <point x="527" y="570" type="line"/>
      <point x="519" y="572" type="line"/>
      <point x="512" y="573" type="line"/>
      <point x="381" y="573" type="line"/>
      <point x="381" y="123" type="line"/>
      <point x="512" y="123" type="line"/>
      <point x="519" y="124" type="line"/>
      <point x="527" y="126" type="line"/>
      <point x="535" y="129" type="line"/>
      <point x="542" y="132" type="line"/>
      <point x="549" y="136" type="line"/>
      <point x="556" y="141" type="line"/>
      <point x="562" y="147" type="line"/>
      <point x="568" y="153" type="line"/>
      <point x="573" y="160" type="line"/>
      <point x="577" y="167" type="line"/>
      <point x="581" y="175" type="line"/>
      <point x="583" y="182" type="line"/>
      <point x="585" y="190" type="line"/>
      <point x="586" y="197" type="line"/>
      <point x="586" y="205" type="line"/>
      <point x="709" y="205" type="line"/>
      <point x="708" y="186" type="line"/>
      <point x="706" y="167" type="line"/>
      <point x="701" y="148" type="line"/>
      <point x="695" y="129" type="line"/>
      <point x="686" y="111" type="line"/>
      <point x="676" y="93" type="line"/>
      <point x="664" y="76" type="line"/>
      <point x="649" y="60" type="line"/>
      <point x="634" y="46" type="line"/>
      <point x="616" y="33" type="line"/>
      <point x="598" y="23" type="line"/>
      <point x="580" y="14" type="line"/>
      <point x="561" y="8" type="line"/>
      <point x="542" y="3" type="line"/>
      <point x="523" y="1" type="line"/>
      <point x="505" y="0" type="line"/>
      <point x="199" y="1" type="line"/>
      <point x="180" y="3" type="line"/>
      <point x="161" y="8" type="line"/>
      <point x="142" y="14" type="line"/>
      <point x="123" y="23" type="line"/>
      <point x="106" y="33" type="line"/>
      <point x="88" y="46" type="line"/>
      <point x="73" y="60" type="line"/>
      <point x="59" y="76" type="line"/>
      <point x="46" y="93" type="line"/>
      <point x="36" y="111" type="line"/>
      <point x="27" y="129" type="line"/>
      <point x="21" y="148" type="line"/>
      <point x="16" y="167" type="line"/>
      <point x="14" y="186" type="line"/>
      <point x="13" y="205" type="line"/>
      <point x="13" y="410" type="line"/>
      <point x="13" y="492" type="line"/>
      <point x="14" y="510" type="line"/>
      <point x="16" y="529" type="line"/>
      <point x="21" y="548" type="line"/>
      <point x="27" y="567" type="line"/>
      <point x="36" y="586" type="line"/>
      <point x="46" y="604" type="line"/>
      <point x="59" y="621" type="line"/>
      <point x="73" y="636" type="line"/>
      <point x="88" y="651" type="line"/>
      <point x="106" y="663" type="line"/>
      <point x="123" y="673" type="line"/>
      <point x="142" y="682" type="line"/>
      <point x="161" y="688" type="line"/>
      <point x="180" y="693" type="line"/>
      <point x="199" y="696" type="line"/>
    </contour>
  </outline>
</glyph>
<glyph name="d" format="2">
  <advance width="726"/>
  <unicode hex="0064"/>
  <outline>
    <contour>
      <point x="712" y="495" type="line"/>
      <point x="712" y="413" type="line"/>
      <point x="712" y="208" type="line"/>
      <point x="711" y="189" type="line"/>
      <point x="709" y="170" type="line"/>
      <point x="704" y="151" type="line"/>
      <point x="698" y="132" type="line"/>
      <point x="689" y="114" type="line"/>
      <point x="679" y="96" type="line"/>
      <point x="666" y="79" type="line"/>
      <point x="652" y="63" type="line"/>
      <point x="636" y="49" type="line"/>
      <point x="619" y="36" type="line"/>
      <point x="601" y="26" type="line"/>
      <point x="583" y="17" type="line"/>
      <point x="564" y="11" type="line"/>
      <point x="545" y="6" type="line"/>
      <point x="526" y="4" type="line"/>
      <point x="507" y="3" type="line"/>
      <point x="221" y="3" type="line"/>
      <point x="16" y="3" type="line"/>
      <point x="16" y="208" type="line"/>
      <point x="16" y="331" type="line"/>
      <point x="16" y="576" type="line"/>
      <point x="16" y="700" type="line"/>
      <point x="384" y="700" type="line"/>
      <point x="507" y="700" type="line"/>
      <point x="526" y="699" type="line"/>
      <point x="545" y="696" type="line"/>
      <point x="564" y="692" type="line"/>
      <point x="583" y="685" type="line"/>
      <point x="601" y="676" type="line"/>
      <point x="619" y="666" type="line"/>
      <point x="636" y="654" type="line"/>
      <point x="652" y="639" type="line"/>
      <point x="666" y="624" type="line"/>
      <point x="679" y="607" type="line"/>
      <point x="689" y="589" type="line"/>
      <point x="698" y="570" type="line"/>
      <point x="704" y="551" type="line"/>
      <point x="709" y="532" type="line"/>
      <point x="711" y="513" type="line"/>
    </contour>
    <contour>
      <point x="589" y="208" type="line"/>
      <point x="589" y="495" type="line"/>
      <point x="589" y="502" type="line"/>
      <point x="588" y="509" type="line"/>
      <point x="586" y="517" type="line"/>
      <point x="583" y="525" type="line"/>
      <point x="580" y="532" type="line"/>
      <point x="576" y="539" type="line"/>
      <point x="571" y="546" type="line"/>
      <point x="565" y="553" type="line"/>
      <point x="559" y="558" type="line"/>
      <point x="552" y="563" type="line"/>
      <point x="545" y="567" type="line"/>
      <point x="538" y="571" type="line"/>
      <point x="530" y="573" type="line"/>
      <point x="522" y="575" type="line"/>
      <point x="515" y="576" type="line"/>
      <point x="507" y="576" type="line"/>
      <point x="343" y="576" type="line"/>
      <point x="343" y="126" type="line"/>
      <point x="507" y="126" type="line"/>
      <point x="515" y="126" type="line"/>
      <point x="522" y="127" type="line"/>
      <point x="530" y="129" type="line"/>
      <point x="538" y="132" type="line"/>
      <point x="545" y="135" type="line"/>
      <point x="552" y="139" type="line"/>
      <point x="559" y="144" type="line"/>
      <point x="565" y="150" type="line"/>
      <point x="571" y="156" type="line"/>
      <point x="576" y="163" type="line"/>
      <point x="580" y="170" type="line"/>
      <point x="583" y="178" type="line"/>
      <point x="586" y="185" type="line"/>
      <point x="588" y="193" type="line"/>
      <point x="589" y="200" type="line"/>
    </contour>
  </outline>
</glyph>
<glyph name="e" format="2">
  <advance width="616"/>
  <unicode hex="0065"/>
  <outline>
    <contour>
      <point x="349" y="413" type="line"/>
      <point x="554" y="413" type="line"/>
      <point x="554" y="331" type="line"/>
      <point x="349" y="331" type="line"/>
      <point x="349" y="126" type="line"/>
      <point x="595" y="126" type="line"/>
      <point x="595" y="3" type="line"/>
      <point x="349" y="3" type="line"/>
      <point x="22" y="3" type="line"/>
      <point x="22" y="576" type="line"/>
      <point x="22" y="658" type="line"/>
      <point x="22" y="699" type="line"/>
      <point x="349" y="699" type="line"/>
      <point x="595" y="699" type="line"/>
      <point x="595" y="576" type="line"/>
      <point x="349" y="576" type="line"/>
    </contour>
  </outline>
</glyph>
<glyph name="g" format="2">
  <advance width="744"/>
  <unicode hex="0067"/>
  <outline>
    <contour>
      <point x="716" y="529" type="line"/>
      <point x="718" y="510" type="line"/>
      <point x="719" y="492" type="line"/>
      <point x="596" y="492" type="line"/>
      <point x="596" y="500" type="line"/>
      <point x="595" y="507" type="line"/>
      <point x="593" y="514" type="line"/>
      <point x="590" y="522" type="line"/>
      <point x="587" y="529" type="line"/>
      <point x="583" y="537" type="line"/>
      <point x="578" y="544" type="line"/>
      <point x="572" y="550" type="line"/>
      <point x="566" y="556" type="line"/>
      <point x="559" y="561" type="line"/>
      <point x="552" y="565" type="line"/>
      <point x="544" y="568" type="line"/>
      <point x="537" y="571" type="line"/>
      <point x="529" y="573" type="line"/>
      <point x="521" y="573" type="line"/>
      <point x="391" y="574" type="line"/>
      <point x="391" y="123" type="line"/>
      <point x="521" y="124" type="line"/>
      <point x="529" y="125" type="line"/>
      <point x="537" y="126" type="line"/>
      <point x="544" y="129" type="line"/>
      <point x="552" y="132" type="line"/>
      <point x="559" y="137" type="line"/>
      <point x="566" y="142" type="line"/>
      <point x="572" y="147" type="line"/>
      <point x="578" y="154" type="line"/>
      <point x="583" y="161" type="line"/>
      <point x="587" y="167" type="line"/>
      <point x="590" y="175" type="line"/>
      <point x="593" y="183" type="line"/>
      <point x="595" y="190" type="line"/>
      <point x="596" y="198" type="line"/>
      <point x="596" y="205" type="line"/>
      <point x="473" y="205" type="line"/>
      <point x="473" y="328" type="line"/>
      <point x="719" y="328" type="line"/>
      <point x="719" y="205" type="line"/>
      <point x="718" y="187" type="line"/>
      <point x="716" y="168" type="line"/>
      <point x="711" y="149" type="line"/>
      <point x="705" y="130" type="line"/>
      <point x="696" y="111" type="line"/>
      <point x="685" y="93" type="line"/>
      <point x="673" y="76" type="line"/>
      <point x="659" y="61" type="line"/>
      <point x="643" y="46" type="line"/>
      <point x="626" y="34" type="line"/>
      <point x="608" y="23" type="line"/>
      <point x="590" y="15" type="line"/>
      <point x="571" y="9" type="line"/>
      <point x="551" y="4" type="line"/>
      <point x="532" y="1" type="line"/>
      <point x="514" y="0" type="line"/>
      <point x="209" y="1" type="line"/>
      <point x="190" y="4" type="line"/>
      <point x="171" y="9" type="line"/>
      <point x="152" y="15" type="line"/>
      <point x="133" y="23" type="line"/>
      <point x="115" y="34" type="line"/>
      <point x="98" y="46" type="line"/>
      <point x="82" y="61" type="line"/>
      <point x="68" y="76" type="line"/>
      <point x="56" y="93" type="line"/>
      <point x="45" y="111" type="line"/>
      <point x="37" y="130" type="line"/>
      <point x="30" y="149" type="line"/>
      <point x="26" y="168" type="line"/>
      <point x="24" y="187" type="line"/>
      <point x="22" y="205" type="line"/>
      <point x="22" y="410" type="line"/>
      <point x="22" y="492" type="line"/>
      <point x="24" y="510" type="line"/>
      <point x="26" y="529" type="line"/>
      <point x="30" y="548" type="line"/>
      <point x="37" y="568" type="line"/>
      <point x="45" y="586" type="line"/>
      <point x="56" y="604" type="line"/>
      <point x="68" y="621" type="line"/>
      <point x="82" y="637" type="line"/>
      <point x="98" y="651" type="line"/>
      <point x="115" y="664" type="line"/>
      <point x="133" y="674" type="line"/>
      <point x="152" y="683" type="line"/>
      <point x="171" y="689" type="line"/>
      <point x="190" y="693" type="line"/>
      <point x="209" y="696" type="line"/>
      <point x="514" y="697" type="line"/>
      <point x="532" y="696" type="line"/>
      <point x="551" y="693" type="line"/>
      <point x="571" y="689" type="line"/>
      <point x="590" y="683" type="line"/>
      <point x="608" y="674" type="line"/>
      <point x="626" y="664" type="line"/>
      <point x="643" y="651" type="line"/>
      <point x="659" y="637" type="line"/>
      <point x="673" y="621" type="line"/>
      <point x="685" y="604" type="line"/>
      <point x="696" y="586" type="line"/>
      <point x="705" y="568" type="line"/>
      <point x="711" y="548" type="line"/>
    </contour>
  </outline>
</glyph>
<glyph name="i" format="2">
  <advance width="383"/>
  <unicode hex="0069"/>
  <outline>
    <contour>
      <point x="356" y="574" type="line"/>
      <point x="356" y="1" type="line"/>
      <point x="29" y="1" type="line"/>
      <point x="29" y="574" type="line"/>
      <point x="29" y="656" type="line"/>
      <point x="29" y="697" type="line"/>
      <point x="356" y="697" type="line"/>
    </contour>
  </outline>
</glyph>
<glyph name="j" format="2">
  <advance width="491"/>
  <unicode hex="006A"/>
  <outline>
    <contour>
      <point x="469" y="574" type="line"/>
      <point x="469" y="205" type="line"/>
      <point x="468" y="187" type="line"/>
      <point x="465" y="167" type="line"/>
      <point x="461" y="148" type="line"/>
      <point x="454" y="129" type="line"/>
      <point x="446" y="111" type="line"/>
      <point x="435" y="93" type="line"/>
      <point x="423" y="76" type="line"/>
      <point x="409" y="60" type="line"/>
      <point x="393" y="46" type="line"/>
      <point x="376" y="33" type="line"/>
      <point x="358" y="23" type="line"/>
      <point x="339" y="14" type="line"/>
      <point x="320" y="8" type="line"/>
      <point x="301" y="3" type="line"/>
      <point x="282" y="1" type="line"/>
      <point x="264" y="0" type="line"/>
      <point x="141" y="0" type="line"/>
      <point x="18" y="0" type="line"/>
      <point x="18" y="123" type="line"/>
      <point x="141" y="123" type="line"/>
      <point x="141" y="574" type="line"/>
      <point x="141" y="656" type="line"/>
      <point x="141" y="697" type="line"/>
      <point x="469" y="697" type="line"/>
    </contour>
  </outline>
</glyph>
<glyph name="k" format="2">
  <advance width="778"/>
  <unicode hex="006B"/>
  <outline>
    <contour>
      <point x="483" y="378" type="line"/>
      <point x="757" y="1" type="line"/>
      <point x="470" y="1" type="line"/>
      <point x="468" y="4" type="line"/>
      <point x="388" y="110" type="line"/>
      <point x="388" y="1" type="line"/>
      <point x="19" y="1" type="line"/>
      <point x="19" y="698" type="line"/>
      <point x="388" y="698" type="line"/>
      <point x="388" y="411" type="line"/>
      <point x="421" y="457" type="line"/>
      <point x="593" y="698" type="line"/>
      <point x="716" y="698" type="line"/>
    </contour>
  </outline>
</glyph>
<glyph name="l" format="2">
  <advance width="626"/>
  <unicode hex="006C"/>
  <outline>
    <contour>
      <point x="599" y="124" type="line"/>
      <point x="599" y="1" type="line"/>
      <point x="190" y="1" type="line"/>
      <point x="26" y="1" type="line"/>
      <point x="26" y="411" type="line"/>
      <point x="26" y="657" type="line"/>
      <point x="26" y="698" type="line"/>
      <point x="354" y="698" type="line"/>
      <point x="354" y="411" type="line"/>
      <point x="354" y="124" type="line"/>
    </contour>
  </outline>
</glyph>
<glyph name="m" format="2">
  <advance width="1043"/>
  <unicode hex="006D"/>
  <outline>
    <contour>
      <point x="1012" y="697" type="line"/>
      <point x="1012" y="1" type="line"/>
      <point x="807" y="1" type="line"/>
      <point x="684" y="1" type="line"/>
      <point x="684" y="233" type="line"/>
      <point x="684" y="279" type="line"/>
      <point x="602" y="1" type="line"/>
      <point x="479" y="1" type="line"/>
      <point x="397" y="279" type="line"/>
      <point x="397" y="1" type="line"/>
      <point x="29" y="1" type="line"/>
      <point x="29" y="697" type="line"/>
      <point x="397" y="697" type="line"/>
      <point x="541" y="210" type="line"/>
      <point x="684" y="697" type="line"/>
      <point x="807" y="697" type="line"/>
    </contour>
  </outline>
</glyph>
<glyph name="o" format="2">
  <advance width="744"/>
  <unicode hex="006F"/>
  <outline>
    <contour>
      <point x="572" y="689" type="line"/>
      <point x="591" y="683" type="line"/>
      <point x="610" y="674" type="line"/>
      <point x="628" y="664" type="line"/>
      <point x="645" y="652" type="line"/>
      <point x="661" y="637" type="line"/>
      <point x="675" y="622" type="line"/>
      <point x="687" y="605" type="line"/>
      <point x="698" y="587" type="line"/>
      <point x="706" y="568" type="line"/>
      <point x="713" y="549" type="line"/>
      <point x="717" y="530" type="line"/>
      <point x="720" y="511" type="line"/>
      <point x="721" y="493" type="line"/>
      <point x="720" y="187" type="line"/>
      <point x="717" y="168" type="line"/>
      <point x="713" y="149" type="line"/>
      <point x="706" y="130" type="line"/>
      <point x="698" y="112" type="line"/>
      <point x="687" y="94" type="line"/>
      <point x="675" y="77" type="line"/>
      <point x="661" y="61" type="line"/>
      <point x="645" y="47" type="line"/>
      <point x="628" y="34" type="line"/>
      <point x="610" y="24" type="line"/>
      <point x="591" y="15" type="line"/>
      <point x="572" y="9" type="line"/>
      <point x="553" y="4" type="line"/>
      <point x="534" y="2" type="line"/>
      <point x="516" y="1" type="line"/>
      <point x="211" y="2" type="line"/>
      <point x="192" y="4" type="line"/>
      <point x="173" y="9" type="line"/>
      <point x="154" y="15" type="line"/>
      <point x="135" y="24" type="line"/>
      <point x="117" y="34" type="line"/>
      <point x="100" y="47" type="line"/>
      <point x="84" y="61" type="line"/>
      <point x="70" y="77" type="line"/>
      <point x="57" y="94" type="line"/>
      <point x="47" y="112" type="line"/>
      <point x="39" y="130" type="line"/>
      <point x="32" y="149" type="line"/>
      <point x="28" y="168" type="line"/>
      <point x="25" y="187" type="line"/>
      <point x="24" y="206" type="line"/>
      <point x="24" y="410" type="line"/>
      <point x="25" y="511" type="line"/>
      <point x="28" y="530" type="line"/>
      <point x="32" y="549" type="line"/>
      <point x="39" y="568" type="line"/>
      <point x="47" y="587" type="line"/>
      <point x="57" y="605" type="line"/>
      <point x="70" y="622" type="line"/>
      <point x="84" y="637" type="line"/>
      <point x="100" y="652" type="line"/>
      <point x="117" y="664" type="line"/>
      <point x="135" y="674" type="line"/>
      <point x="154" y="683" type="line"/>
      <point x="173" y="689" type="line"/>
      <point x="192" y="694" type="line"/>
      <point x="211" y="697" type="line"/>
      <point x="516" y="697" type="line"/>
      <point x="534" y="697" type="line"/>
      <point x="553" y="694" type="line"/>
    </contour>
    <contour>
      <point x="598" y="493" type="line"/>
      <point x="597" y="500" type="line"/>
      <point x="596" y="507" type="line"/>
      <point x="595" y="515" type="line"/>
      <point x="592" y="523" type="line"/>
      <point x="589" y="530" type="line"/>
      <point x="584" y="537" type="line"/>
      <point x="580" y="544" type="line"/>
      <point x="574" y="551" type="line"/>
      <point x="567" y="556" type="line"/>
      <point x="560" y="561" type="line"/>
      <point x="553" y="565" type="line"/>
      <point x="546" y="569" type="line"/>
      <point x="538" y="571" type="line"/>
      <point x="531" y="573" type="line"/>
      <point x="523" y="574" type="line"/>
      <point x="393" y="574" type="line"/>
      <point x="393" y="124" type="line"/>
      <point x="523" y="124" type="line"/>
      <point x="531" y="125" type="line"/>
      <point x="538" y="127" type="line"/>
      <point x="546" y="129" type="line"/>
      <point x="553" y="133" type="line"/>
      <point x="560" y="137" type="line"/>
      <point x="567" y="142" type="line"/>
      <point x="574" y="148" type="line"/>
      <point x="580" y="154" type="line"/>
      <point x="584" y="161" type="line"/>
      <point x="589" y="168" type="line"/>
      <point x="592" y="176" type="line"/>
      <point x="595" y="183" type="line"/>
      <point x="596" y="191" type="line"/>
      <point x="597" y="198" type="line"/>
    </contour>
  </outline>
</glyph>
<glyph name="t" format="2">
  <advance width="699"/>
  <unicode hex="0074"/>
  <outline>
    <contour>
      <point x="680" y="698" type="line"/>
      <point x="680" y="575" type="line"/>
      <point x="516" y="575" type="line"/>
      <point x="516" y="1" type="line"/>
      <point x="188" y="1" type="line"/>
      <point x="188" y="575" type="line"/>
      <point x="25" y="575" type="line"/>
      <point x="25" y="657" type="line"/>
      <point x="25" y="698" type="line"/>
    </contour>
  </outline>
</glyph>
<glyph name="v" format="2">
  <advance width="850"/>
  <unicode hex="0076"/>
  <outline>
    <contour>
      <point x="472" y="411" type="line"/>
      <point x="536" y="192" type="line"/>
      <point x="614" y="411" type="line"/>
      <point x="643" y="493" type="line"/>
      <point x="715" y="698" type="line"/>
      <point x="838" y="698" type="line"/>
      <point x="592" y="2" type="line"/>
      <point x="264" y="2" type="line"/>
      <point x="60" y="582" type="line"/>
      <point x="19" y="698" type="line"/>
      <point x="387" y="698" type="line"/>
      <point x="448" y="493" type="line"/>
    </contour>
  </outline>
</glyph>
<glyph name="w" format="2">
  <advance width="1282"/>
  <unicode hex="0077"/>
  <outline>
    <contour>
      <point x="908" y="411" type="line"/>
      <point x="973" y="191" type="line"/>
      <point x="1050" y="411" type="line"/>
      <point x="1079" y="493" type="line"/>
      <point x="1152" y="698" type="line"/>
      <point x="1275" y="698" type="line"/>
      <point x="1029" y="1" type="line"/>
      <point x="701" y="1" type="line"/>
      <point x="640" y="175" type="line"/>
      <point x="578" y="1" type="line"/>
      <point x="250" y="1" type="line"/>
      <point x="5" y="698" type="line"/>
      <point x="373" y="698" type="line"/>
      <point x="433" y="493" type="line"/>
      <point x="458" y="411" type="line"/>
      <point x="522" y="191" type="line"/>
      <point x="600" y="411" type="line"/>
      <point x="629" y="493" type="line"/>
      <point x="701" y="698" type="line"/>
      <point x="824" y="698" type="line"/>
      <point x="884" y="493" type="line"/>
    </contour>
  </outline>
</glyph>
<glyph name="x" format="2">
  <advance width="727"/>
  <unicode hex="0078"/>
  <outline>
    <contour>
      <point x="469" y="296" type="line"/>
      <point x="711" y="2" type="line"/>
      <point x="629" y="2" type="line"/>
      <point x="588" y="2" type="line"/>
      <point x="417" y="210" type="line"/>
      <point x="293" y="2" type="line"/>
      <point x="18" y="2" type="line"/>
      <point x="254" y="409" type="line"/>
      <point x="15" y="699" type="line"/>
      <point x="138" y="699" type="line"/>
      <point x="305" y="496" type="line"/>
      <point x="422" y="699" type="line"/>
      <point x="710" y="699" type="line"/>
    </contour>
  </outline>
</glyph>
<glyph name="y" format="2">
  <advance width="753"/>
  <unicode hex="0079"/>
  <outline>
    <contour>
      <point x="304" y="490" type="line"/>
      <point x="470" y="698" type="line"/>
      <point x="744" y="698" type="line"/>
      <point x="533" y="404" type="line"/>
      <point x="533" y="2" type="line"/>
      <point x="252" y="2" type="line"/>
      <point x="252" y="404" type="line"/>
      <point x="10" y="698" type="line"/>
      <point x="92" y="698" type="line"/>
      <point x="133" y="698" type="line"/>
    </contour>
  </outline>
</glyph>
<glyph name="z" format="2">
  <advance width="731"/>
  <unicode hex="007A"/>
  <outline>
    <contour>
      <point x="711" y="129" type="line"/>
      <point x="711" y="7" type="line"/>
      <point x="15" y="7" type="line"/>
      <point x="15" y="129" type="line"/>
      <point x="383" y="580" type="line"/>
      <point x="15" y="580" type="line"/>
      <point x="15" y="703" type="line"/>
      <point x="711" y="703" type="line"/>
      <point x="711" y="580" type="line"/>
      <point x="383" y="129" type="line"/>
    </contour>
  </outline>
</glyph>
